<?xml version="1.0" encoding="UTF-8"?>
<svg xmlns="http://www.w3.org/2000/svg" version="1.1" viewBox="0 0 1080 363">
  <defs>
    <style>
      .cls-1 {
        fill: #8d4dfa;
      }

      .cls-2 {
        fill: #310c73;
      }

      .cls-3 {
        fill: #a478f5;
      }
    </style>
  </defs>
  <!-- Generator: Adobe Illustrator 28.6.0, SVG Export Plug-In . SVG Version: 1.2.0 Build 709)  -->
  <g>
    <g id="Capa_1">
      <g>
        <g>
          <g>
            <path class="cls-2" d="M319.2,343.8h-.4c-.7,0-1.4-.1-2-.3l-1.6-.4-1.3.3c-.7.3-1.3.5-2,.3l-1.8-.3-1.3.3c-.7.3-1.1.5-1.8.3l-1.8-.3-2,.8c-.7.3-1.3.3-2,.1l-1.4-.6-2.9.2h-5.2c0-.1-2.2.2-2.2.2l-2.2.8c-.7.3-1.1.5-1.8.6h-.2c-.7,0-1.3,0-2,0l-2.3-.8-1.5.5h-2.5c0,.1-4.9.7-4.9.7-.7,0-1.4-.1-1.9-1l-.2-.2c-.3-.4-.5-.9-.8-1.7l-.9-3.1c-.3-.9-.3-1.1-.1-2l.2-.9-.4-2.7-.2-2.9.3-3.2v-1.6c0,0-.9-5.1-.9-5.1,0-.9,0-1.1.1-2l.3-1.8-.7-3.3-.4-2.4-.8-5.8-.2-4c0-.9,0-1.6.1-2l.2-.7.5-2.7v-2.5c0,0-.5-5.1-.5-5.1l-.2-3.3-.4-2.7-.4-2.9-.3-.9c-.3-.9,0-1.3.1-2l.6-1.6-1-4.9c0-.9.1-1.4.3-2l.4-.9-1.4-5.3q-.3-.9-.1-1.8l.6-4.7-.3-1.5-.4-2.7v-1.8c-.1,0-.2-.9-.2-.9l-.3-1.5c-.3-.9,0-.9-.1-1.8l-.2-2.7v-2.5c0,0-.2-.9-.2-.9-.3-.7-.5-1.1-.3-2l.3-1.8-.6-2.2c-.3-.9-.3-1.1-.1-2v-1.6c.1,0-.2-1.1-.2-1.1-.3-.9,0-.9-.1-1.8v-2.5c-.1,0,.1-2.5.1-2.5l-.3-.9c-.3-.9-.3-1.1-.1-2v-1.6c.1,0,.2-3.1.2-3.1v-1.8c-.2-.9-.2-1.3,0-2l.4-1.6-.6-2.4-.9-4.4c0-.9,0-1.1.1-2l.6-1.4-.2-2.7-.8-1.3c-.3-.7-.5-1.1-.6-2l-.4-3.1.2-3.6-.3-1.5c-.3-.7-.3-1.1-.3-2l-.2-2.9-.4-2.4c0-.9,0-1.6.1-2l.4-.7v-4.7c-.1-1.1.5-1.4,1.4-1.7l3.3-.9,8.5-.5,5.3-.5h2.2c0-.1,4.9,0,4.9,0l1.5-.8c.7-.3,1.1-.3,1.8-.3h.4c.7,0,1.1,0,1.8,0l1.8.3,1.5-.5c.7-.3,1.1-.5,1.8-.6h.7c.7,0,1.1-.1,1.8,0l1.6.4,4.9-.3,1.3-.3c.7,0,1.3,0,2,.1l1.6.6,1.5-.3c.7-.3,1.3-.3,2-.1l4.6,1.3h1.8c.7,0,1.1,0,1.8.2l2.5.5.2-.2c.7-.3,1.1-.3,2,.1l3.2,1.4c.7.2,1.4.4,1.8.8l1.4,1.3,4.2,2.9c.5.4.9.8,1.2,1.3l1,1.3,2.7,3.6.8,1.5.8,1.3.7.9c.5.4.7,1.1,1,1.7l1.1,2.6c.3.7.3,1.1.3,2v3.8s1.3,3.1,1.3,3.1l1.2,4.2c.3.9,0,1.3.1,2v1.6c-.1,0,.1.7.1.7v1.8c.1,0,.2,1.6.2,1.6v3.8s.5.9.5.9c.3.7.5,1.1.6,2v1.6c-.1,0,.3,4,.3,4v1.8c.1,0-.1,3.2-.1,3.2l.5,1.5c.3.7.3.9.3,1.8l.4,2.2v4.3s-.2,4-.2,4l.5,1.3c.3.9,0,1.1.1,2v2.7c0,0,.2,1.3.2,1.3.3.9.3,1.1.1,2l-.5,2.7v1.6c-.1,0,.6,5.1.6,5.1,0,.9,0,1.1-.1,2v1.6c-.1,0-.4,2.9-.4,2.9l.2,3.1.3,1.1c.3.7.5.9.6,1.8v2.2c0,0,.5,2.4.5,2.4.3.9,0,1.3.1,2l-.2,3.4.6,2.4c.3.7.3.9.3,1.8v1.3c0,0,0,1.8,0,1.8,0,.7-.2,1.1-.3,1.8l-.3,1.8.3,1.3c.3.9.3,1.1.1,2v1.6c-.1,0-.6,2.5-.6,2.5v1.8c.1,0,.2,1.8.2,1.8v1.6c-.1,0,.6,4.9.6,4.9q0,.9-.1,1.8l-.3,1.8-.4,1.6-.5,2.3c-.2.9-.6,1.4-1,1.9l-1,1.4v1.6c0,.9-.3,1.6-.7,2.1l-2.5,3.3-2.3,2.6-.4,1.1c-.2.7-.4,1.1-.8,1.6l-1.4,2.3c-.4.5-.6,1.2-1.3,1.4l-3.5,2.2-2.6,1.3-1.5,1c-.7.3-1.3.5-2,.6h-1.1c0,0-3.5,1.6-3.5,1.6-.7.3-1.1.5-1.8.6l-4,.7c-.9.3-1.1,0-1.8.1ZM309.6,315.9l2.9-.4,4.5-.3,1.9-1.5c.4-.5,1.1-.5,1.7-.8l1.8-.6,1.4-2.8.7-3,.5-2.5-.7-3.8v-1.8c-.1,0,0-4,0-4v-1.8c-.1,0,0-2.5,0-2.5v-3.8s-.3-1.3-.3-1.3v-2c-.1,0,0-1.4,0-1.4v-2.5c0,0-.2-1.1-.2-1.1v-1.8c-.1,0,.2-2.5.2-2.5l-.4-2.7-.3-.9c-.3-.7-.3-.9-.3-1.8v-1.8c-.1,0,.2-2.5.2-2.5l-.6-1.8c-.3-.7-.3-1.1-.3-2v-1.8c-.1,0,.1-3.6.1-3.6v-2c-.1,0-.7-5.8-.7-5.8l-.3-.9c0-.9,0-1.1.1-2v-1.8c.1,0-.2-4.7-.2-4.7l-1.1-2.6c-.3-.9-.3-1.1-.3-2l.4-4.5-.5-1.1c-.3-.7-.3-1.1-.3-2v-2.2c0,0,0-2.9,0-2.9l-.3-1.3c-.3-.9,0-1.3-.1-2l.2-4-1-5.8-.8-2.9-1.7-5.9-1.9-1.7-1.7-2.1-9-1.2-1.8.3-2.9.4-4-.2-2.8,1.3.4,2.2c0,.9.3.9.3,1.8v2c-.1,0,.4,4.9.4,4.9,0,.9-.1,1.4-.3,2l-.5,2.1.5.9c.5.6.7,1.1.8,2v1.6c0,.9,0,1.3-.2,2l-.3,2,.8,1.7c.3.7.3,1.3.1,2l-.4,1.1.4,6-.3,2.5.8,2.6.3,1.3c.3.9.3,1.1.1,2l-.3,1.8v1.6c.1.9.2,1.3,0,1.8l-.2.9,1,2.2c.3.9,0,1.3-.1,2l-.4,1.1.2,3.6.5,1.5c0,.7,0,1.1-.1,2v1.4c-.1,0,.1,4.5.1,4.5l.4,2.2.6,2.7v1.8c.1,0,.5,6.5.5,6.5l.4,2.2v2.5c0,0,.5,1.8.5,1.8.3.9.3,1.1.3,2v2c-.1,0,.5,9.8.5,9.8v2.9s.5,1.8.5,1.8c.3.9,0,1.1-.1,2l-.6,1.8.8,1.3c.3.7.5,1.1.6,2v1.1c0,0,0,3.4,0,3.4l1.1,4,3.4.5,5.5-1Z"/>
            <path class="cls-2" d="M364.4,330.3l-1.7-.4c-.6,0-.9-.2-1.5-.4-.6-.2-.9-.6-.7-1.5l.6-2.8-.4-.9c-.2-.6-.2-.9-.2-1.7v-3c0,0,0-2.3,0-2.3v-1.1c0-.8.2-1.1.4-1.7l.6-1.9-.2-2.1-.4-.9c-.2-.8,0-1.1,0-1.7l.2-1.9v-1.5c0-.8-.1-.9,0-1.7l.2-1.1.4-2.6-.5-1.3c-.2-.8,0-1.1.2-1.7l.6-1.1-.4-1.3c-.2-.8,0-1.1,0-1.7l.4-1.5v-2.5c-.1,0-.5-.9-.5-.9-.2-.6-.2-.9-.2-1.7l.2-1.3.6-3-.3-3.6c0-.8,0-.9.2-1.7l.2-1.1-.5-1.5c-.2-.8-.2-.9,0-1.7l.4-1.1-.5-1c-.2-.6-.4-.9-.3-1.7l.2-1.3.5-4.9-.4-.6c-.2-.6-.2-.9-.2-1.7v-5.5c.1-.8.1-.9.3-1.5l.2-.9-.3-1.9v-2.5c-.1,0-.1-1.5-.1-1.5l.2-.9v-2.8c-.1,0-.3-.9-.3-.9,0-.8.2-1.1.4-1.7l.6-1.7-.2-1.1c-.2-.6-.2-.9-.2-1.7v-.8s-.3-2.3-.3-2.3q-.2-.8,0-1.5l.4-1.3.2-2.1v-1.9s-.5-2.3-.5-2.3c-.2-.8,0-1.1.2-1.7l.4-.9v-4.7c-.1,0-.5-1.3-.5-1.3-.2-.8-.2-1.1,0-1.7l.4-.6-.3-1.7c-.2-.6,0-.9,0-1.7v-3c-.1,0-.5-2.1-.5-2.1-.2-.8-.2-1.1,0-1.9l.4-1.1.3-3.8v-3.8c0,0,0-1.5,0-1.5l-.2-1.3c0-.8-.2-.9,0-1.7l.4-1.9v-1.1q0-.8.2-1.5l.6-2.4c.2-.8.8-1.3,1.5-1.3h1.9s2.8.3,2.8.3h2.3c0-.1,4.5.1,4.5.1l3.6.4.6-.2c.6-.2,1.1-.5,1.7-.3l1.7.4,2.4.2h4c.6-.1.9-.1,1.5,0l1.3.4,2.1-.2,4-.9c.6-.2.9,0,1.5,0h.9s3.2-.1,3.2-.1c.6,0,.9,0,1.5.2l2.1.8.6-.6c.6-.4,1.1-.5,1.7-.3l4.5.8.8-.4c.6-.2,1.1-.4,1.7-.3l1.3.2h2.5c0-.1,1.9-.1,1.9-.1.6,0,.9,0,1.5.2l2.1.6c.6.2.9.8,1.1,1.5v.6c0,.6.2.8.2,1.5v3c0,0,0,2.5,0,2.5v1.7s-.2.9-.2.9l.2,2.1c0,.8.2,1.3,0,1.7l-.2.8-.4,2.4-.8,3.4c-.2.6-.6,1.1-1.2,1.3l-1.9.5c-.6.2-.9.2-1.5.2l-1.5-.2-7.9-.7-1.9.3c-.6.2-.9.2-1.5.2l-3.2-.2-3.6.3h-2.5c0,.1-2.1,0-2.1,0-.6,0-.9,0-1.5-.2l-2.1-.4-1.9-.2-2.8,1.1-.6,1.9-1,2.8.5,1.1c.2.6.4.9.2,1.7l-.4.9-.6,2.6v2.3c.1,0,.3,1.1.3,1.1,0,.8,0,.9-.2,1.7l-.6.9v3c0,0,.3,1.3.3,1.3.2.8.2.9,0,1.7l-.4.9.3,3,.3,2.5v1.7s-.5,3.2-.5,3.2l2,2.7,4.5.3,1.3-.4c.6-.2,1.1-.4,1.7-.2l2.1.6,1-.4c.6-.2,1.1-.2,1.7-.2l2.1-.2c.6,0,1.1.2,1.7.2l3,.4,1.9-.2h1.7s1.7-.1,1.7-.1c.6,0,.9,0,1.5.2l1.9.6c.6.2,1.1.6,1.3,1.2l1.1,3.6.2.6c.2.6.2.9.2,1.7l-.2,2.1-.3,4.1-.6,2.6.4.9c.2.6.2.9,0,1.7l-.6,1.9v1.7c0,.8-.4,1.3-1.2,1.5l-1.7.5c-.6.2-.9.4-1.5.4h-5.8c0-.1-2.6.4-2.6.4h-2.3c-.6.1-.9,0-1.5-.4l-.9-.4-2.8-.2-1.9.2h-3c0,.1-.9.5-.9.5-.6.2-1.1.2-1.7.2h-2.8c0,0-.2,2.6-.2,2.6v3.6c0,0,0,1.7,0,1.7v1.7s0,.9,0,.9l-.4,1.7-.2,2.3v2.8c.1,0,.5,3.4.5,3.4,0,.8,0,1.1-.2,1.5l-.4.7v2.5s.3,1.5.3,1.5c.2.8,0,.9-.2,1.7l-.2.9v2.5c.1,0,.1,2.5.1,2.5l.7,2.3c.2.8.2,1.1,0,1.5l-.2.8,1.3,1.2h2.6c0-.1,1.9-.7,1.9-.7.6-.2,1.1-.2,1.7-.2l.8.2,2.8.4,2.4.6,2.8-.7c.6-.2.9-.2,1.5-.2h.4s1.7,0,1.7,0l2.4.2.6-.2c.6-.2,1.1-.2,1.7,0l1.5.4,1.5-.4c.6-.2,1.1-.2,1.7,0l1.5.6,1.7-.5h2.5c.6-.1,1.1-.3,1.7,0l1.1.4c.6.2.9.8.9,1.5l.3,2.3v1.3s0,1.7,0,1.7l-.2,3.4.4,1.3q.2.8,0,1.5l-.4,1.3.6.6c.4.4.4,1.1.3,1.7l-.2,2.3c0,.8-.2.9-.4,1.5l-.6,1.5c-.2.8-.8,1.1-1.5,1.1h-2.6c0,.1-1.5.5-1.5.5-.6.2-1.1,0-1.7,0l-.9-.2-1.9.3h-1.5s-4.3-.5-4.3-.5l-3.2-.4-1.5.5c-.6.2-1.1.2-1.7-.2l-.9-.4-6.8,1.2h-1.3c-.6,0-1.1,0-1.7-.2l-1.9-.6-1.3.2c-.6,0-.9.2-1.5,0l-1.5-.2-.9.2c-.6.2-1.1,0-1.7,0l-2.3-.4-1,.5c-.6.2-1.1.4-1.7.2l-1.7-.2h-3.2c-.6.1-1.1.1-1.7,0l-1.5-.4-2.3-.4-2.6.3c-.8.2-.9.2-1.5,0Z"/>
            <path class="cls-2" d="M469.8,334l-.6-2.6v-1.5c-.1,0-.2-2.3-.2-2.3,0-.6-.1-1.1,0-1.7l.2-1.7v-2.6c0,0-.8-2.2-.8-2.2l-.5-1.1c-.2-.5-.3-.9-.3-1.7v-.9c-.2-.8-.2-.9,0-1.5l.3-2.5-.3-1.5v-1.5c-.1,0,0-1.5,0-1.5l-.9-2q-.3-.7-.3-1.5v-2.5c.1,0-.3-4.1-.3-4.1l-.4-.7c-.4-.5-.5-1.1-.5-1.7v-2.1s0-1.3,0-1.3l.4-4.2-.2-4.5-.5-1.7c-.3-.7-.5-.9-.3-1.7l.2-1.9v-.6c-.3-.7-.3-.9-.2-1.7l.4-1.6-.5-1.5c-.2-.5-.3-.9-.3-1.7v-.8c-.1-.8-.2-1.1,0-1.7l.3-1.2-.6-2.4-.6-2.6v-1.5c-.2-.8-.3-1.1-.1-1.7l.2-1.9v-2.3s-.4-1.9-.4-1.9l-.2-2.3-.6-4.1-.4-2.2c0-.8,0-.9,0-1.5l.2-1.5v-.8c0,0-.2-1.5-.2-1.5v-1.1c-.1,0-.5-2.6-.5-2.6l-.3-1.3-.2-1.7v-3.2c0,0-.3-1.7-.3-1.7,0-.8-.1-1.1,0-1.7l.3-1.2-.3-2.6-.3-.7c-.3-.7,0-.9-.2-1.7v-2.1s0-1.7,0-1.7l-1.5-3.8c-.2-.5-.3-.7-.3-1.5l-.4-3.9v-3c0,0,.2-2.5.2-2.5v-1.5c-.1,0-.9-2-.9-2-.2-.5-.3-.9-.3-1.7v-.4c0-.6-.3-.9-.4-1.7v-.4c-.1-.8-.1-.9,0-1.5l.4-2.1v-1.9c0-.8.3-1.2.4-1.6.3-.4.7-.8,1.4-.7l4.2.4,4.3-1,2.8-.3h4.4s1.7-.6,1.7-.6c.5-.2,1.1-.3,1.5-.3.4,0,.9-.3,1.5-.3h3.2c0-.1,1.7-.3,1.7-.3.6,0,.9,0,1.5,0l1.3.3,3.1.7c.6.1,1.2.5,1.4,1.2l.7,1.6c.2.5.5.9.5,1.5v.8c0,0,1,1.4,1,1.4.2.5.3.9.3,1.7v1.5c.1,0,.5,2.2.5,2.2l1.9,6.4.9,3.3c.2.5.3.7.3,1.5l.2,1.9.6,1.8.3,1.1c.2.5.3.7.3,1.5l.2,1.9.6,2.2.6,1.8,1.2,5,.3.9c.2.5.3.7.3,1.5l.2,2.3.6,2.6.7.9c.2.5.3.7.3,1.5l.2,2.1.6,2,.7,1.6c.2.5.4.7.5,1.5l.7,3.3.4,2.6.7,1.4.7,1.3c.2.5.5.9.5,1.7l.4,2v1.5c.1,0,1.4,3.1,1.4,3.1l.7,1.3,1,2.6.6,2.8.4,1.9.5,1.7,1,2.6.4,1.9c.3.7.3.9.3,1.1l-.2.2,1.4.4.3-3.1v-.8c-.1-.8.2-1.2.3-1.7l.5-1.2-.2-2.1v-2.3c0-.8-.1-.9,0-1.5l.3-1.2-.3-1.7c0-.8,0-1.1,0-1.7v-.6c-.1-.6,0-1,.2-1.5l.3-1,.8-2-.3-3.4c0-.8,0-1,.2-1.5l.8-1.6v-4s0-4.2,0-4.2c0-.8,0-1,.2-1.5l.4-1.9.2-2.3.6-2.1.2-4v-1.3c-.2-.8-.2-.9,0-1.7l.2-1.9.4-2.1.2-2.1-.3-.7c-.3-.7-.5-.9-.3-1.7l.4-2.1v-3.8s-.1-1.3-.1-1.3c0-.8.3-1.2.4-1.7l.3-.6.4-1.9.3-5,.2-2.3v-1.7s-.1-1.7-.1-1.7c0-.8-.1-1.1,0-1.7v-.8c.2-.8.4-1.2.5-1.6l.6-1.4.2-4.2v-.9c-.2-.8.4-1.2,1.1-1.4l3.5-.7,2.4-.2.7-.6c.5-.4,1.1-.3,1.7-.2l1.3.3,1.4-.7c.5-.2,1.1-.7,1.7-.5l3.6.2,2.1.2.9-.5c.5-.2.9-.3,1.5-.3h.4s1.5-.2,1.5-.2h2.1s2-.6,2-.6c.5-.2,1.1-.1,1.7,0l1.9.4c.8.1,1.2.5,1.3,1.4v2.6c0,0,.8,1.6.8,1.6.3.7.3.9.2,1.7v1.1c0,0,.3,2,.3,2l.2,1.7c0,.6,0,1,0,1.5v1.3c0,0,.4,2.8.4,2.8q0,.8,0,1.5l-.2,1.9.5,1.5c.3.7.3.9.2,1.7l-.4,1.7,1.1,3.7c.2.5.3.7.3,1.5l.5,3.7v.9c.2.8.2.9,0,1.5l-.3,1.2.5,3v.9c0,0,.2,1.5.2,1.5v2.3s.3.7.3.7c.3.7,0,.8.1,1.5v1.3c.1,0,.2,2.6.2,2.6l.5,4.9.7,3.5c0,.8.3.9.2,1.7l-.3,1.3.5,1.3c.3.7.3,1.1.3,1.7l-.2,2.3.2,2.4v2.3s1.1,4.8,1.1,4.8v.8c0,.8,0,1.1-.1,1.7l-.4,1.7.8,2c.3.7,0,.9.2,1.7l.5,5.3.5,1.7c.2.5.3.9.3,1.7v.9c.2.8,0,1.1-.1,1.7l-.4,1.7,1.2,3.1.3.7c.3.7.3.9.2,1.7l-.3,1.3v2.3s.7,1.4.7,1.4c.3.7.3,1.1.3,1.7v1.1c0,0,.5,1.8.5,1.8,0,.6.3.9.2,1.7v.8c-.1,0,.4,1.7.4,1.7.3.7,0,.9,0,1.7l-.4,1.7.6,2.2.2.5c.2.5.3.9.2,1.7l-.5,2.3.4.7c.2.5.3.7.3,1.5l.3,1.3c0,.8,0,1.1,0,1.5v.6c0,0,0,2.9,0,2.9l.8,4.1q0,.8,0,1.5l-.3,2.7v1.3c-.2.6-.5,1.2-1,1.6l-.2.2c-.5.2-1.1.5-1.7.3l-1.5-.2-2,.4-1.1.7c-.5.2-1.1.3-1.7.3h-1.3c0,.1-4.7.4-4.7.4l-4.9.5c-.6,0-1.1.1-1.7,0h-.6c-.8,0-1.2-.6-1.1-1.5v-1.7s-.8-2.9-.8-2.9v-.8c-.1-.6-.3-.7-.4-1.5l-.3-3.6c0-.8,0-1,.2-1.5v-1.1c0,0-.2-4.5-.2-4.5l-1-4.6-.2-2.4-1.2-6.7-.4-2.4-.2-2.3c0-.8.3-1,.4-1.6l.3-.8-.5-1.5c-.2-.5-.5-.9-.5-1.7l-.2-2.1v-2.5s-.5-1.3-.5-1.3c-.3-.7,0-.9,0-1.5v-1c0,0-.4-1.7-.4-1.7-.3-.7-.3-.9-.2-1.7l.4-3.6-.6-1.8q-.3-.7-.1-1.5v-1.5s-.4-2.4-.4-2.4l-.4-4.7-.6-2.2-.3-3c0-.8,0-.9,0-1.5l.2-1.5h-.6c0,0-1.2,1.7-1.2,1.7l-.4,3.6v1.3c.2.8,0,1-.1,1.5l-.4,1.7.7,1.6c.3.7.1,1.1-.2,1.7l-.6,1.6.6,1.8c0,.6,0,1.1-.2,1.7l-.4,1.4-.2,1.5.4,4.7c0,.8,0,1-.2,1.5l-.2,1.5v1.1c0,.8-.3,1.2-.5,1.7l-.3.8.3,1.5c0,.8.1,1.1,0,1.7l-.6,1.8.4,2c0,.8,0,1,0,1.5l-.3,2.7.2,1.7c0,.8.1,1.1-.2,1.7l-.7,1,.6,1.8c0,.6.1,1.1,0,1.7l-.6,1.8-.3,2.3-.2,3.8-.2,2.3.3,2.8c0,.8.3,1.1.2,1.7l-.4,1.6-.8,1.4v2.3s.5,1.5.5,1.5c.3.7.1,1.1,0,1.7l-.9,2.5c-.1.6-.6,1.2-1.2,1.4l-1.3.5-1.4.7-2.4.6c-.5.2-.9.3-1.5.1l-4.8-.5-1.5.5c-.5.2-.9.3-1.5.3l-4-.2-2.6.3c-.8,0-1.3,0-1.6-.8l-1.2-3.1q-.3-.7-.3-1.3v-.8c0,0-1.5-5-1.5-5l-1-4.8-.8-2-1.4-4.8c-.3-.7-.3-.9-.3-1.7v-1.5s-.6-.9-.6-.9c-.4-.3-.6-.7-.7-1.4l-.3-.7-.2-1.7.2-2.1-.4-.7c-.2-.5-.6-.7-.7-1.4l-.4-2-.4-2.4-.6-4.3-.7-1.1c-.2-.4-.4-.7-.7-1.4l-.2-.4c-.2-.5-.3-.9-.3-1.7l-.2-1.7-.7-1.3c-.2-.5-.5-.9-.5-1.7v-1.5s-1.8-3.4-1.8-3.4l-.7-1.4-.2-.5c-.3-.7,0-.9-.2-1.7v-1.3c0,0-1.4-5.5-1.4-5.5l-.8-4.5-.9-1.6-2.1.2v2.1s1,4.6,1,4.6c0,.8,0,1.1,0,1.7v1.3c0,0,.2.5.2.5.2.5.5.9.5,1.7v1.5c.2.8.2.9,0,1.5v1.1c0,0,.4,1.5.4,1.5.3.7.3.9.3,1.7v1.5s0,1.7,0,1.7l.5,2.8.3.9c.3.7,0,.9,0,1.7l-.2,1.5.3,1.1c.3.7.1,1.1.2,1.7v1.3c0,0,.4,1.3.4,1.3.2.5.5.9.5,1.7l-.2,4.4.5,1.7c.3.7.3.9.2,1.7l-.2,1.5.2,4.3.3.7c.3.7.3,1.1.2,1.9l-.3,1,.6,2.6.3,1.5c0,.8,0,1.1-.2,1.7l-.3,1,.6,1.8c.3.7.1,1.1.2,1.7v1c0,0,.1,2.4.1,2.4l.5,1.1c.2.5.5.9.3,1.7l-.3,1,.8,2.4c.3.7.1,1.1.1,1.3s-.3.4-1.1.9l-1.4.7c-.5.2-1.1.5-1.7.5h-1.9s-1.5.5-1.5.5c-.5.2-1.1.1-1.7,0l-1.7-.4-2.6.4-3.1,1.1c-.5.2-.9.3-1.5.3h-1.1c-.6.2-1,0-1.5,0h-2.5c-.8-.3-1.2-.6-1.4-1.3Z"/>
            <path class="cls-2" d="M576.3,328.8l.3-3-.3-1.5v-1.9c-.1-.8-.3-.9-.1-1.7l.4-.9.3-2.6-.2-.4c-.4-.6-.5-1-.5-1.7v-.9c0-.8.2-.9.4-1.5l.6-1.1-.7-3.8c-.2-.6-.2-.9-.1-1.7v-3.8c0,0,.5-3,.5-3l-.2-.9c-.2-.6-.2-.9-.1-1.7v-1.3s.5-2.6.5-2.6l.4-2.1-.3-1.7v-1.7s.2-4.5.2-4.5l-.4-1c-.2-.8-.2-.9,0-1.7l.6-2.2.2-1.9-.3-3.8c0-.6-.2-.9-.1-1.7l.2-1.1-.3-3.6v-1.7s.9-4.1.9-4.1v-1.3s0-1.5,0-1.5l.4-2.1v-1.5s-.5-2.5-.5-2.5c-.2-.8-.2-.9-.1-1.7l.5-3.8-.4-.8c-.2-.6-.4-1-.1-1.7l.6-1.7-.4-1c-.2-.8-.2-1.1-.1-1.7l.4-1.9v-4c0,0,.2-4.1.2-4.1v-2.5c0,0-.1-1.1-.1-1.1-.2-.8,0-1.1.2-1.7l.6-1.3-.2-.4c-.2-.6-.5-1-.3-1.7l.4-2.3-.2-.9c-.2-.8-.2-.9,0-1.7l.2-.9v-4.3c.1,0-.2-4.5-.2-4.5q0-.8.2-1.5l.2-1.1v-2.6c0,0,.3-2.6.3-2.6l-.3-3.4c0-.6-.2-.8-.2-1.5l.2-1.7.4-2.4-.5-1c-.4-.8-.2-1.1,0-1.7l.4-1.1.4-2.6c0-.8.6-1.3,1.4-1.5l2.3-.3c.6-.2,1.3-.2,1.7-.1l.6.2h4.7c.6,0,.9.1,1.5.3l1.3.6,3.8-.7c.6-.2,1.1,0,1.7.2l1.5.6.8-.2c.6-.2,1.1-.2,1.7,0l1.9.4c.7.2,1.1.6,1.1,1.5v.4s0,1.7,0,1.7l-.6,3.2.5.8c.2.6.4,1,.3,1.7l-.2,2.3.2,1.1-.2,2.4c0,.8-.2.9-.4,1.5l-.6,1.3v1.3s0,5.3,0,5.3l.3,2.6c0,.8,0,.9-.2,1.7l-.6,1.9v2.1c.1,0,.7,1.1.7,1.1.2.6.2,1.1,0,1.7l-.6,1.3.3,2.6.2.9c.2.8.2,1.1.1,1.7l-.5,3.4v2.5c.1.8.1.9-.1,1.7l-.4,1.5.2.6c.2.8,0,1.1,0,1.7l-.2,2.1.3,1.5c.2.6.4.8.3,1.5l-.2,1.5-.2,1.7-.4,2.4.2,1.5c0,.6.2.9.1,1.7v.8c0,.8-.2,1.1-.4,1.7l-.4,1.1.5,1.7c.2.6.2.8.2,1.5v3.8c0,0,0,1.3,0,1.3,0,.8-.2.9-.2,1.7s0,1.1-.2,1.7l-.4,1.7.5,1c.2.6.4.8.3,1.5l.3,2.8v1.5s-.8,6.2-.8,6.2c0,.8,0,1.1-.2,1.7l-.4,1.3.5,1.9.3,2.8v.4s0,1.7,0,1.7l-.2,2.1-.3,4.3-.3,4,.6,4.7v1.7c.1,0,0,2.8,0,2.8l-.3,2.6-.7,6.2v4.3c-.1,0,.4,1.7.4,1.7.2.6.4,1,.3,1.7l-.4,2.3c0,.6-.2,1.1-.6,1.5l-.6.9c-.4.6-1,.9-1.5,1.1l-.9.2c-.8.2-1.1,0-1.7-.2l-2.6-.6h-5.1c0-.1-.6,0-.6,0-.6.2-1.1.3-1.7.3l-1.9-.2-2.4-.6-.4.2c-.6.4-1.1.3-1.7.3h-4c-.8-.1-1.3-.7-1.3-1.4Z"/>
            <path class="cls-1" d="M647.5,332.4l-1.7-.3c-.6,0-1-.1-1.5-.3s-1-.5-.8-1.5l.4-2.9-.4-.9c-.2-.6-.2-.9-.3-1.7v-3c-.1,0-.4-2.3-.4-2.3v-1.1c0-.8,0-1.1.2-1.7l.5-1.9-.3-2.1-.4-.9c-.2-.7,0-1.1,0-1.7v-1.9c0,0,0-1.5,0-1.5,0-.8-.2-.9,0-1.7v-1.1c.1,0,.4-2.7.4-2.7l-.6-1.3c-.2-.7,0-1.1.1-1.7l.5-1.2-.4-1.3c-.2-.7,0-1.1,0-1.7l.3-1.5-.3-2.4-.4-.9c-.2-.6-.2-.9-.3-1.7v-1.3c.1,0,.5-3,.5-3l-.6-3.6c0-.8,0-.9.1-1.7v-1.1c.1,0-.5-1.5-.5-1.5-.2-.7-.2-.9,0-1.7l.3-1.1-.6-.9c-.2-.6-.4-.9-.5-1.7v-1.3c.1,0,.3-4.9.3-4.9l-.4-.5c-.2-.6-.2-.9-.3-1.7l-.3-5.5c0-.8,0-.9.1-1.5v-1c.1,0-.3-1.9-.3-1.9l-.3-2.4v-1.5c0,0,0-1,0-1l-.3-2.8-.2-.9c0-.8.1-1.1.3-1.7l.5-1.7-.2-1.1c-.2-.6-.2-.9-.3-1.7v-.8s-.5-2.2-.5-2.2q-.2-.7,0-1.5l.3-1.3v-2.1c0,0,0-1.9,0-1.9l-.7-2.2c-.2-.7,0-1.1.1-1.7l.3-1-.4-4.7-.4-1.3c-.2-.7-.2-1.1,0-1.7l.3-.6-.5-1.7c-.2-.6,0-.9,0-1.7l-.3-3-.5-2.1c-.2-.7-.2-1.1,0-1.9l.3-1.1v-3.8s-.2-3.8-.2-3.8l-.3-1.5-.3-1.3c0-.8-.2-.9,0-1.7l.3-1.9v-1.1q0-.8,0-1.5l.4-2.5c.2-.8.7-1.4,1.4-1.4h1.9c0,0,2.8,0,2.8,0l2.3-.3h4.5s3.6.2,3.6.2l.6-.2c.6-.2,1.1-.6,1.7-.5l1.7.3h2.5c0,0,3.9-.3,3.9-.3.6,0,.9,0,1.5.1l1.3.3,2.1-.3,3.9-1.1c.6-.2.9,0,1.5,0h.9s3.2-.4,3.2-.4c.6,0,.9,0,1.5.1l2.1.7.5-.6c.5-.4,1.1-.6,1.7-.5l4.6.5.7-.4c.6-.2,1.1-.4,1.7-.5h1.3c0,.1,2.4-.2,2.4-.2h1.9c.6-.1.9-.1,1.5,0l2.1.5c.6.2,1,.7,1.2,1.5v.6c0,.6.3.7.3,1.5v3c.1,0,.5,2.4.5,2.4v1.7c0,0,0,1,0,1l.3,2.1c0,.8.3,1.3,0,1.7l-.2.8-.3,2.5-.6,3.4c-.2.6-.5,1.2-1.1,1.4l-1.9.7c-.6.2-.9.2-1.5.3h-1.5c0-.1-7.9-.3-7.9-.3l-1.9.5c-.6.2-.9.2-1.5.3h-3.2s-3.6.5-3.6.5l-2.4.3h-2.1c-.6,0-.9,0-1.5-.2l-2.1-.3h-1.9c0,0-2.8,1.2-2.8,1.2l-.5,1.9-.8,2.9.6,1.1c.2.6.4.9.3,1.7l-.3,1-.4,2.7.3,2.3.2,1.1c0,.8,0,.9-.1,1.7l-.5,1v3c.1,0,.6,1.3.6,1.3.2.7.2.9,0,1.7l-.3,1,.5,3,.5,2.4v1.7c0,0-.1,3.2-.1,3.2l2.2,2.5h4.5s1.3-.5,1.3-.5c.6-.2,1.1-.4,1.7-.3l2.1.5.9-.4c.6-.2,1.1-.2,1.7-.3l2.1-.3c.6,0,1.1.1,1.7.1l3,.2,1.9-.3h1.7c0,0,1.7-.4,1.7-.4.6,0,.9,0,1.5.1l1.9.5c.6.2,1.2.5,1.4,1.1l1.3,3.5.2.6c.2.6.2.9.3,1.7v2.1c0,0,0,4.2,0,4.2l-.4,2.7.4.9c.2.6.2.9,0,1.7l-.5,1.9v1.7c.1.8-.2,1.3-1,1.6l-1.7.6c-.6.2-.9.4-1.5.4l-5.8.3-2.6.7-2.3.3c-.6,0-1-.1-1.5-.5l-1-.3h-2.8c0,0-1.9.2-1.9.2l-3,.3-.9.4c-.6.2-1.1.2-1.7.3h-2.8c0,.1,0,2.8,0,2.8l.2,3.6.3,1.7v1.7c0,0,.1.9.1.9l-.3,1.7v2.3c0,0,.2,2.8.2,2.8l.5,3.4c0,.8,0,1.1-.1,1.5l-.3.8v2.4c.1,0,.6,1.5.6,1.5.2.7,0,.9-.1,1.7v1c-.1,0,.2,2.4.2,2.4v2.4c.1,0,1,2.2,1,2.2.2.7.2,1.1,0,1.5l-.2.8,1.4,1.1,2.6-.3,1.9-.7c.6-.2,1.1-.2,1.7-.3l.8.2,2.8.2,2.5.4,2.8-.9c.6-.2.9-.2,1.5-.3h.4s1.7-.1,1.7-.1h2.5c0,0,.6-.1.6-.1.6-.2,1.1-.2,1.7,0l1.5.3,1.5-.4c.6-.2,1.1-.2,1.7,0l1.5.5,1.7-.6,2.4-.3c.6,0,1.1-.2,1.7.1l1.1.3c.6.2,1,.7,1,1.5l.5,2.2v1.3c0,0,.1,1.7.1,1.7v3.4s.4,1.3.4,1.3q.2.7,0,1.5l-.3,1.3.6.5c.4.4.4,1.1.5,1.7v2.3c0,.8-.2,1-.4,1.5l-.5,1.5c-.2.8-.7,1.2-1.5,1.2l-2.6.3-1.5.4c-.6.2-1.1,0-1.7,0h-1c0-.1-1.9.3-1.9.3h-1.5c0,0-4.3,0-4.3,0l-3.2-.2-1.5.6c-.6.2-1.1.2-1.7-.1l-1-.3-6.7,1.6h-1.3c-.6,0-1.1.1-1.7,0l-1.9-.5-1.3.3c-.6,0-.9.2-1.5,0h-1.5c0-.1-.9.1-.9.1-.6.2-1.1,0-1.7,0l-2.3-.3-.9.6c-.6.2-1.1.4-1.7.3h-1.7c0-.1-3.2.2-3.2.2-.6,0-1.1,0-1.7-.1l-1.5-.3-2.3-.3-2.6.5c-.7.2-.9.2-1.5,0Z"/>
            <path class="cls-1" d="M795.2,349.8l-2.3-.3c-.7,0-1.4-.5-1.8-1l-.9-.7-2-1.7-1.8-.5c-.7-.3-1.1-.7-1.6-1.2l-4.3-6.1-1.3-1.2c-.7-.7-.6-1.2-.8-1.9l-.8-1.9-1.1-5.6-1.2-3.3-.7-.9c-.4-.5-.6-.9-.6-1.9v-2.5c-.1,0-.5-2.1-.5-2.1l-1.5-2.4c-.4-.5-.4-.9-.6-1.9l-.4-2.3-1.2-5.1-1.9-4.9-.6-1.9-.2-1.4-.4-2.1-1.4-4-.4-2.3-1.2-4.4-1.7-3.1-1.2.2-.8,1.8-.3,2.3c0,.9-.3,1.4-.8,1.8l-1,1.6-.3.9c-.3.9-.7,1.3-1,1.8l-1,1.8-.5,1.8-1.1,3.2-2,3.6c-.2.4-.5,1.4-1,1.8l-1,1.1v2.3c0,.9-.2,1.4-.4,2l-2,3.4-.3,1.8c0,.9-.3,1.4-.5,2l-1.2,2v1.1c0,.7-.1,1.4-.8,2l-1.4.9-.6,3.2-.3,1.8c-.3.9-.5,1.1-.8,1.8v.2c-.3.7-.7,1.1-1.2,1.6l-1.2,1.8v1.8c-.1.9-.4,1.4-.9,2l-1.7,2.5-.5,1.4c-.3.7-.7,1.3-1.4,1.5l-2.3.8c-.7.2-1.2.2-1.8.2h-3.4c0-.1-3.4-.5-3.4-.5l-1.8.2h-2.1c-.7-.1-1.4,0-2.1-.2l-1.6-.5-3-.6-1.8.2c-.7.2-1.6,0-2-.8l-.6-.9c-.4-.7-.6-1.4-.6-2.1l.6-3.9c0-.9.3-1.4.5-2l2-2.9,1.5-3.1v-1.8c.1-.9.1-1.1.4-1.8l.5-1.1,2-5c.3-.7.5-1.1,1-1.6l1-1.3.5-2,.8-1.6.5-.9.3-1.4c0-.7.5-1.4.8-1.8l1.2-2.2v-1.1c0-.9,0-1.1.4-1.8l.8-2.5.5-2,.8-2,.8-1.8,2.7-4,.5-1.6c.3-.9.5-.9,1.2-1.6l.7-.7,1.1-3.9.8-3.4c0-.7.3-1.4.5-2l1-1.8.3-1.6.8-1.8,2-4.7.3-1.6c0-.9,0-1.4.3-2.1l2.2-4,1.3-2.5,1.1-5.2-1.4-5.1-1.5-2.6-.8-3-1-3-1.4-4.9-.8-2.6-1.4-5.1-1-2.3-.6-1.9c-.2-.7-.4-1.2-.4-1.6l.2-.4-.8-2.8-.5-3.5-1.2-3c-.2-.7-.4-1.2-.4-2.1l-.2-1.6-.5-3.5-1.3-2.4-1-2.8-.4-1.9c-.2-.9-.2-1.2-.2-1.8l.3-.7-1.8-6-.4-2.5-.6-2.8-.6-2.5-1-2.6-.8-2.8-.6-2.8-.8-2.8-.9-1.4c-.4-.7-.4-1.4-.4-2.1v-.5c.3-.7,1-1.3,1.7-1.5l2.3-.6c.7-.2,1.4-.2,2.1-.1h1.8c0,0,1.8,0,1.8,0,.7-.2,1.4-.2,2.1,0l1.6.3,2.3-.6c.7-.2,1.4-.2,2.1,0l.9.5,2.7.6,1.8-.2c.7-.2,1.2-.2,1.8-.2l2.7.3c.7,0,1.4.3,2,.5l.4.2c.7.5,1.1.5,1.6,1,.4.5.9,1,1.1,1.7l.8,2.6.8,2.8.6,3.2,1,2.8.8,2.8.9,5.8.6,1.4c.2.5.6,1.2.8,1.9l.7,4.2c.2.7.2.9.2,1.8v1.4c0,0,.7,3.5.7,3.5l.4,1.9.8,3c.2.7.4,1.2.4,1.6v.9s1,3.5,1,3.5l.9,1.4c.4.5.6,1.2.6,1.9l.4,2.5.6,1.6c.2.7.4.9.6,1.9v2.1c.1,0,1.4,4,1.4,4,.7.3,1.1.5,1.6,1l.7.5-.2-1.4c0-.9,0-1.4.3-2.1l1.3-2.7,2-3.1.6-2.3,1.3-2.7.3-1.1c0-.9.3-1.1.5-1.8l1.2-2,1.3-3.4-.2-1.2c0-.9,0-1.1.3-1.8l.5-1.4.8-1.8,1-1.6.5-2,1.3-3.6.6-2.5.5-1.8,2.3-5.9,1.3-2.5.5-1.4v-2.1c.1-.9.4-1.1.6-1.8l1-1.8,1.8-4.3,1.3-2.5c.3-.9.7-1.3,1.7-1.3h2.1c.7-.1,1.4,0,2.1.2l1.8.5,8.9.4,2.5-.4c.7-.2,1.4,0,2.1.3l2.3.6h2.1c.7.1,1.1.6,1.8.9.7.5.9.7.6,1.9l-.6,2.5-2,5-.5,1.8c-.3.9-.5,1.1-1,1.8l-1.2,1.1v2.7c-.2.9-.2,1.1-.4,1.8l-1.5,3.4-.8,1.8-.8,1.8-.7,1.3-1.5,2v2.1c.1.9,0,1.4-.4,2l-.7,1.1-1.7,2.5-1.3,3.8-1.1,3.9-.8,1.8-1,1.8-.8,2.7v1.8c-.1.7-.4,1.1-1.1,1.8l-1,.9-.6,2.3c-.3.9-.5,1.4-.8,1.8l-.7,1.1-1.2,2.2v2.5c0,.9-.2,1.4-.4,2l-2,3.4-1.7,3.4-.3,1.4c0,.9-.3,1.1-.5,1.8l-.8,2-1.3,2.7-2,4.5.9,5.5.5,3.9,1.6,5.6.9,1.4c.2.5.6,1.2.8,1.9l.2,1.4.6,2.8.8,2.3c.2.7.4.9.4,1.9v2.5c.1,0,1.2,1.7,1.2,1.7.4.5.6,1.2.8,1.9l.8,3.5,1,2.6c.2.7.4,1.2.4,1.9v.9s1,2.3,1,2.3l1.5,3.5.8,1.9.6,1.9.6,1.9.4,2.1.6,3,.6,2.5,1.1,1.2c.4.7.6.9.8,1.9l.4,2.1.6,2.1.6,2.3,1.9,4.7,1,3.7,1.5,2.6c.4.7.6.9.6,1.9v1.4c0,0,1,1.2,1,1.2.4.5,1.1,1,1.3,1.7l.6,1.4,2,1.5,1.8,1.5,2.9,1.3c.9.5,1.3,1.2.6,2.1l-.7.9-1.4,1.3-2.1,1.3c-.5.4-1.2.9-1.9.8h-1.8c0,0-1.2.8-1.2.8-.7.4-1.4.4-2.1.1l-1.8-.3-1.2.4c-.7.2-1.4.2-2.1.1l-3.7-.4-5.9-1.4Z"/>
          </g>
          <g>
            <path class="cls-2" d="M277.3,38v3l-.5.7.3.8-.3,2,.5,1.2-.3,1.2.5,1-.2,1-.5.5.5.3-.5,1,.2,1.2v8.7l.3,1.5v17l.3,1-.3,2.7.2,1h-.8l-.2.5,1,.7.2.7-.5,1.2.2,3.3-.3.5.3.7-.2,4.3.3,3.8v6l-.3,1.2-.7-.3-.3.3.3.5.7-.2.3.3.2,1.3-.8.8.7.3.2.7-.7,1.7.7.5.2,1.2-1.2.5.2,1h1.2v.8l-1.2.8.8,1-.5.8v1.5l.3.5-.3,1.8v2.7l.3,2.8-.2.5-1.2.5,1,.3.3.5v1.8l-1.2-.5-.5,1-1.2.7.5.3,1.3-.7.2.5.7-.2.8,3.2-.2.7-1,.2.3.5h.7l.5,1-.3.5-.7-1-.5.3.5,3.8-.2,1.2-.8-.2-.3.5.3.5.8-.2.3.7v1.5l-.3.3.8-.3.7.3-.8.8v.7l1,.7.2.7.8-.3.7.8-.3,2.3.5,1,.7-.7-.7-1,1-1.8-.7-.7.3-.5.7-.2.3.3-.5,1.8.5,1.3.7-.2-.3-1.3.5-.7v-1.2l.3-.5.3.3-.2.7.3,1.8-.2.7.5,1.8.5-.3-.5-1.5.7-.8v-1l-.7-.7.7-.8.7,1.7.5-.3.2-1.3.5.2.8,2.2-.2.8.5-.3.2-.7-.5-1.2.3-1,1,.3.7-.5h.7l.3.5,1.3-.5.7.3.7-.3.7.2.3.5,1.5-.5.7,1,.5-1,.8.3h1.5l.5,1.2.5-1,.5-.3.3.8,1.5-.7.7.8.8-.5.3.3.3,3-.2,3.2.3,1.3-.2.8.3.5-.3.5-1-.7-.3.3.2.7h-.7v-.8l-.5-.3-.3.7-.7.3-1-.7-.7.7-.8-1-1,.8h-.7l-.5-.7-.7.3-.5-.7-1,1.2-.7-.2-.8-1-.8.8-.5-.7-1.3,1.2-1-1.2-.7.3-.5-.5-.8,1.2h-.8l-.3-.7-.7.8-1-1-1,.7-1.2-.8-.5,1-.5.3v-.8l-.5-.5-1,.8-1.2-.7-.5.3-1-1.3.3,1.5-.3.2-1-.5-.8.3-.8-.5-2.7.2-2.3-.3-1.7.7-.7-.2-.2-3.5.3-.8-.5-.5-.2-1,.5-1.2-.5-1.3.7-1.8-.3-2.5.3-.5-.3-.3-.2-3.8.5-1.2-.3-.5-.2-1.5.3-.7-.5-1.7.7.2.2.8.3-.3-.5-1.8h-.5l-.3-.7.2-.7.7.8.8-.7-.8-.7h-.7l.8-1-.2-2.3-.5-.3.8-.8-.5-.8h-.5l.5-.7.2-1.5-.3-.7v-5.7l.3-1.3-.3-1.2v-6.5l-.3-1.3.2-1.3-.3-.3-.2-1.3.5-1,.2,2.7.5-.2.3-1.2-.3-1.2.2-1.7-.5-3.2-.8-.3.2-.8.5-.5-.3-2.3.3-.7-.3-.7v-2.8l.3-.7-.2-3.5-.3-8.7v-6.5l-.3-1.3v-2.5l.5-.5-.7-2.2,1.3-1.7-.8-1.2.5-.7-.5-.5.5-2.7-.5-.5v-1l.5-1.2-.3-.5-.8.2-.3-.5.2-.7,1.2-.3-.3-1.2-.5-.3.5-.7v-9.3l-.5-2v-2.7l.7-.5.7.2.8-.3h2l1.7.5,2.7-.8,1,.7,1.3-.2.2.5ZM268.5,138.6v-.5l-.5-.2v.7h.5ZM268,143.2l.2.7.7.2.3-.5-.7-.8-.5.5ZM268.7,144.9l-.3-.3-.2.3h.5ZM269,121.2l-.3-.3.3.5v-.2ZM269,146.2h-.3l.3.5v-.5ZM269.7,132.1l.5-.3-.5-.3-.3.5.3.2ZM269.7,134.2v.5l.5-.2v-.3h-.5ZM270,137.1v-.3l-.3.2.3.2ZM271.3,145.2l-.5-.5-.3.3.3.5.5-.3ZM271.3,147.9l-.2-1.2-.5.2v1l.5.5.2-.5ZM271.7,135.9l.2-.7-.5-.2-.3.3.7.5ZM271.8,133.4l-.5-.7-.2.5.7.2ZM272,138.9l.3-.3-.5-.3-.3.3.5.3ZM272.8,143.9l.7-.2-.7-.7-.5.5.5.3ZM272.8,132.7l-.3-.2.3.5v-.3ZM272.7,146.7l.7-.2-.5-.8-.3.7.2.3ZM273,128.6l-.2.7.5.2-.3-.8ZM272.8,131.9l1.3.2.3-.5-1.5-.5-.2.8ZM274,114.4h-.5v.5l.5-.5ZM274.3,120.2l.3-.5-.5-.2-.3.3.5.3ZM274.3,140.2v-.5l-.5.3.5.2ZM274.2,142.4l.5.2.5-.5-.3-.5h-.7l-.3.5.3.3ZM274,146.2l.8-.2-.2-.5h-.8l.2.7ZM274.7,122.4l-.7-.2v.7l.7-.5ZM274.5,128.2l.8-.3-.5-.5-.5.5.2.3ZM274.3,130.4l.5.3v-.8l-.5.2v.3ZM274.8,145.2l-.3-.5v.5h.3ZM275,148.1l.2-.3h-.7l.5.3ZM275.5,136.1l.3-.7h-.7l.3.7ZM275.5,116.1v-.2l-.2.2h.2ZM275.5,130.2v-.2l-.2.2h.2ZM276.2,138.2v-.7l-.7-.2-.2,1,.7.3.2-.5ZM276.2,118.4l-.7-.2.2.5.5-.3ZM276.3,124.2l.3-.5-.5-.3-.3.7.5.2ZM276.3,140.6l-.3-.2.3.8v-.7ZM276.5,135.2l.5.3.2-.3-.5-1.2-.3.3.2.8ZM276.8,134.1v-.5l-.3.3.3.2ZM277,146.4h-.3l.3.3v-.3ZM278,152.2l-.3-.3-.2.7.5.2v-.5ZM278,149.4l-.2-.5-.2.5.3.5v-.5ZM279.5,151.4l.2-.5-.7-.7.2-.8-.3.2.3,2.2.3-.3ZM279.7,156.6l-.2-.7-.5-.2-.2.7.5.5.3-.3ZM279.7,153.9l-.5-.5v1l.5-.5ZM280.5,155.2v.7l1.2-.3-.2-.7-1.2-.3.2.7ZM282.7,153.4l.2,1,.5-.3v-.7l-.7-.3-.2-.7-.3.7.5.3ZM285,155.1l-.8-.8.2.8.5.5.2-.5ZM286.9,151.2l-1-.7.3,1.3.7-.7ZM286.7,153.6l-.3.2v.7h.5l.2-.5-.3-.3ZM286.9,156.1h-.3l.3.8v-.8ZM288.5,155.1l-.3-.3v.3h.3ZM289.9,148.7h-.3l.2.7.2-.7ZM290,154.2l.3-.3h-.5l.2.3ZM291.7,150.6l.2-.8-.5.2.3.7ZM292.2,152.6l-.5-.2v.5l.5-.3ZM293.7,148.9l-.5-.5-.2.5.3.5.3-.5ZM302.2,154.2v-.2l-.2.2h.2ZM304,154.2l.3-.3h-.3v.3Z"/>
            <path class="cls-2" d="M709.3,34.5l.3,2.5-.5,1.5.7.2.3,1-1,.5.3,2.5-.2,2.2.5-.2.3-1.2.3.5-.3,1.5.3,1.8-.7,1.3.5,1.5-.3.7.3,2.2-.3.7.3,1.7-.3,4.5v6.3l.3,1.2-.7,1.3.7.5-.8,1.7,1,.5-.2.5.3.5-1,.7-.2,1.2h1.2l.3.5-.2.7-1.3.3.3,1.5.8-.3.2,1.8-1-.5-.5.2v.8l1.3.5-.2,1.3-1,.7.2.3h.7l.2,1.5-1.2.3-.3.7.7.3.7-.2.2,1.3-.5.8-.8-.7-.3.5.2.7,1.3.2.3,3-.5,1.3-1.2-.7-.2-.5h-.7l-.3-.3-.3.5.3.5.8-.2.3,1.3,1.3-.2v2.2l-1-.5-.5.5v1.2l1-.5.5.2v1.2h-1.5l-.5.7v.5l.5.3.7-.3.8.2-.2,1.8.5.5-.5,1.2.2.7-.5.5-.8-.7-.5.7.3.7,1.2-.3v1.3l.5.7-.5.2.2,1.8,1,1.5-1,.8.2,1.3.7-.7.3.5.2,3.8-1.3-.3-.5.5.5.7.8-.2.3.3v2.3l-.5,2.5v2l.3.7-.3,1.3.2,1.3-1,7.8.3,1.5-.3.7v1.5l-.3.7-.8-.3-.3.5.2.8.7.3-.2,1.2h-.8l.2,1.7-.5.7.2,1.5-.7.8-.2.8-1.3,1.3-.7,2.7h-1.3l-.3.5.2,1.8-1.3-.5-.3,1.2-.8.8-.7-.8-.3.5.2.8-.8,1.2-1-1.2v1.3l-1,1-.2-.8-.5-.5v1.7l-.3.3h-.7l-.7-1.5-.3.3.3,1.2-.2.7h-.7l-1-.8-.3.3.2.8-.5.3-1-.5-1.2.8-1.5.2-.7-.3-1,.5-.5-.3.2-1-.8.8-2.7-.5-1,.2-1.2-.7.5-.8-.7.7-.8.2-.8-1-.8.3-1.7-.5-1.3-.8.7-1.7-.8,1-1-.8.5-1-1.2.3-.7-.2.2-1.5-1.7-1.2-.3-2.5-.8-.5-.3-.7-.3-2.8-.7-.7-.5-1.2v-2.3l-.8-1,.3-1.2-.5-1.5.3-.3v-1l-.3-.5.3-1.8-.3-.7.2-3.3-.3-.8.3-.8-.2-.7.3-2.5v-5.8l.7-2.5-.2-3.8.8-1.2.5-1.7-.2-2.2.3-.7.3-4,.8-.8.2-.7,3.8,1,.8-.7.7.8,1-.5,2.5.8v1.5l-.3,1,.2,1.2-.5,3.7.3,2.5-.5.7v2.2l-.3.5.3.7-.3,2,.2,1.2-.3,1.5.3,1.5-.2.8-.3,9.8-1.2.5-.3.7,1.3-.5.2,4.2.3,1.2-.3,1.5.5.5v.5l.5.7.3,2,1,1.2v.7l1,.5,1,1,.8.2,1.5,1.2.2-.7.7-.2,1.2.5.7-.3.7.2,1-.8,1,.8.3-.3-.7-1,.5-.2,1.7.5.3-1.3.5-.3.8.5.3-.2-.2-.7,1.3-1.2.2-.7.8-.5.2-1.3.7-.8.5.2.2-1.5.3-.5v-1.5l.7-1.7-.2-.7.3-.7v-1.5l.3-.7v-2.3l1-.7-.7-.5-.3-1.3.7-1.3-.5-.8.3-1.8.5-.5-.7-.8.3-4.3-.3-1.3.2-.7,1.2,1.2.3-.5-.3-.7-.7-.2-.8-2.2.3-.2,1,.5.3-.3-.3-1-1-.2.5-1.2.7.7.5-.5-.5-1.2-.5.5-.5-.2.3-.5h.7l.5-.8.2-1.3-.3-.8.5-1.3-.3-.7h-.8l.2-1.2.8-.3.2-.7-.7-1.3h-.7l-.8-1,.3-.5h.7l.3,1.2.7-.2.2-1.5-1.5-.5v-1.5l.5-.5.3.5-.3,1,1.2-.2v-.7l-.8-1.2,1.8-1-1.2-.8-.8.2.3,1.2-.3.5-.8-.7.2-.7,1.3-1.7,1-.2.7.5-.5-.5.3-.8-1.3-.2-.7.8-.7.2-.5-1.3h.7l.8-1.2,1-.7-1.5-1,.2-.5h.5l-.5-.2,1-.7h.7l.3-.3-.2-.7-.7.3-1-.8.3-.8.7-.3-.7-.3-.5.7-.7-.3-.3-1.2,1.2-.2.2-.7.8-.7-.3-.5-.8.7-.7-.2v-.7l.5-.5,1,.2-.7-1.3-1.3-.3.2-.7,1.2-.7.3-.7-1.2.2-.5-1.3.7-1-.5-1.2v-1.2l1.2-.3.5-.5-.5-.3h-1.7l.8-1.3.8-.3-.7-1.3-1.7-1.8.5-.8-.2-1.2.3-1.3-.2-1-.7-.5,1-1.2-.2-.8-.8-.7.8-1.3-.7-.8v-1.3l.8-.3-.2-1-.8.2.8-1.8-1-1.8.3-2.8-.3-.5.5-4-.3-1.5.5-1-.2-1.2v-5.2l.3-.5.8.3.5-.3h1.2l.8-.3,1.2.5,4.5-.3.3.5ZM692.3,148.6l.3-.2-.3-.3v.5ZM695.8,154.9v-.7h-.5l.5.7ZM699.1,149.1l.2-.3h-.5l.3.3ZM699.6,52.7l-.3-.2.3-.3v.5ZM699.8,146.9l-.3-.2v.2h.3ZM700.3,68.7l-.2.5v-.5h.2ZM701.3,102.4l-.3.3-.7-.2.2-.7.7-.2.2.7ZM700.9,105.2l-.3.3-.3-.8.7-.2v.7ZM700.9,107.7l-.3.5-.3-.5.2-.5.7-.2-.2.7ZM700.3,150.1l.3.3v-.7l-.3.3ZM701.6,87.5l-1.2-.5.3-.5.7-.2.5.3-.2.7-.2.2ZM701.6,89v.7l-.7.2-.3-1,.7-.2.3.3ZM701.4,67.4l.3-.2-.2-1.2-.7,1.2.5.2ZM701.6,119.4v-1.3h-.5l-.2,1.3.3.5.3-.5ZM701.6,121.9l-.2-.8-.5.8h.7ZM701.8,62.4v-1.3l-.5.3-.2.8.7.2ZM701.9,64.5l-.5-.2-.3.3.3.3.5-.5ZM701.6,123.9l-.5-.2v.5l.5-.3ZM701.9,59.4v-.7l-.5-.5-.2,1.3.7-.2ZM701.6,54h.3v-.3h-.3v.3ZM701.9,56.7v-.3h-.3v.5l.3-.2ZM702.4,79.4l.5-.3-.3-.5h-.3l-.3.5.5.3ZM702.8,74.2l.2-.3-.3-.5-.3.7.5.2ZM703.3,149.2l-.8-.3.5.8.3-.5ZM703.1,147.2l.2-.5h-.7l.5.5ZM703.4,98l.5-.2-.7-.8-.3.2.5.8ZM703.6,111.9l-.2-.7-.3.2-.2.7.3.3.3-.5ZM703.4,114.6l-.5-.3.2.8.3-.5ZM703.8,101.9l.2-.5-.3-.7-.5,1,.7.2ZM703.4,106.4h-.3l.3.7v-.7ZM703.6,83.9l-.2-.5-.2.5h.3ZM703.8,86l.5-1.3h-1l.2,1.2.3.2ZM704.3,91.2l.7-.3-1.7-1,.5,1.5.5-.2ZM704.3,88.7l-.3-.7.3-.5-.3-.2-.5,1.5.8-.2ZM704.3,96.4l-.5-1h-.3v.7l.5.7.3-.3ZM703.9,99l-.5-.5.3.7.2-.2ZM704.1,80l-.3.3.5.3.8-.5-.5.2-.3-.7-.5.2.3.2ZM703.8,82.5v.7l.7-.2.2-.5-.3-.5-.5.5ZM704.1,148.4l.3.7.5-.3.2-.8-1.2-.2.2.7ZM704.9,115.9l.2-.7h-.3l-.2.7h.3ZM705.3,93l-.5.2v.5l.5-.7ZM705.3,142.9l-.3-.5-.2.5h.5ZM705.3,99.7l.2.8.5-.3-.3-1.2-.5.2.2.5ZM705.4,103.7l.5-1.2-.5-.8-.3,1,.3,1ZM705.8,105.4l.2-.7-.5-.3-.3.7.2.7.5-.3ZM705.6,77.4l-.2-.3-.2.3h.3ZM705.3,90.2h.5l.2-.7-.3-.3-.3,1ZM705.8,95.4l1-.5v-.3l-1.2-.3-.3,1,.5.2ZM705.3,97.2v.7l1.5-.5-.5-.5-.8-.2-.2.5ZM705.4,92.7h.7l.3-.7h-.8l-.2.7ZM707.3,141.6l-.3-.5-.7-.2.5,1.2.5-.5ZM707.1,86.4h-.3l.2.3.2-.3ZM706.9,98.5l-.2.7,1.3.3.5,1,.5.2.3-.3-.3-1.3-.7-.2.8-.5-1.7.2h-.7ZM707.3,106.9l-.3-.5-.2.5h.5ZM707.4,88.9l.5-.2v-1l-1,.5v.7h.5ZM708.1,93.9l.8-.8-1.2.2v-.5h-.7l-.2.7.3.7.8-.2ZM707.4,95.4l-.5-.2.2,1.8,1-.8-.5-.3-.2-.5ZM707.4,104.4v-.5h-.3l-.2.5h.5ZM707.6,101.4l-.3-.7-.2.7.3.5.2-.5ZM707.3,103.4l.2-.2-.3.2h.2ZM707.4,134.4v-.2l-.3.2h.3ZM707.3,137.1l.3-.7-.3-.2-.2.8h.2ZM707.4,83.2l.5-.5-.2-.5-.5.2.2.8ZM707.8,85.9l-.3-.3-.2.3h.5ZM707.9,77.9v-.3l-.3.2.3.2ZM708.4,80.5l.5-.5-.8.2-.5-.7.2,1.2.7-.2ZM708.8,108.4l.2-.3-.5-.2v.5h.3ZM708.9,56.7l-.3-.2v.5l.3-.3ZM709.4,70l-.2-.7-.7.5.8.2ZM709.1,72.5v-.5l-.5.2.5.3ZM708.9,77.2v-.5l-.3.5h.3ZM708.8,89.4l.2.5.8-.2v-.7l-1.2-1.2.3,1-.2.5ZM709.1,105.4l-.2-.7-.3.7.3.5.2-.5ZM708.9,133.1l.5-.3-.3-.5-.2.8ZM709.3,136.1l.2-1.2-.5-.2v1.3h.3ZM709.3,128.1l.5-.2-.3-.7-.3.7.2.2ZM709.8,116.4l-.2,1.2.5.3.3-1.8-1.2-.3.5.7ZM709.4,119.6l.3.7.3-.8-.7.2ZM709.9,122.4h-.5v.3l.5-.3ZM710.3,41.5l-.3,1v-1.2l.3.2ZM710.3,112.4v-.3h-.3l.3.3Z"/>
            <path class="cls-2" d="M285,119.3c0-10.5,3.3-22.2,9.7-35.2,3.8-7.5,6.3-11.3,10-15.2,4.8-5,9.3-7.3,15.2-7.3s13.5,3.8,16.8,9c.5.8,1,1.5,1.2,1.3,0,0,1.2-1.3,2.5-3.2,4.5-6,8.5-9,11.8-9s6.2,3.2,6.5,6.8c.3,3-.2,4.7-6.2,22.8-6,18.7-7.8,24.7-9,30-2,9.7-1.3,11.8,2.3,9.3,2.5-1.8,9.3-12,20.3-30.3,5.8-9.7,6.2-10.2,7.8-11,3.8-1.8,8,.8,8,5s-.5,3.3-6.8,13.7c-8.8,14.5-14.7,23.7-18.2,27.7-3.7,4.3-6.2,6.2-10.3,7.2-2.5.7-3.8.7-6,.2-3.7-.8-6.8-3.3-8.5-7-2.7-5.5-1.3-15.3,5-34.7,1.3-4.3,2.3-8,2.3-8-.2-.2-2.7,4-5.7,9.2-11.3,19.3-14.2,23.8-18.8,29.3-4.2,5-9.7,8.7-14,9.2-4.5.5-9.7-2.2-12.7-6.7-2.7-3.8-3.3-7-3.3-13.2ZM298.5,126.6c.8,1,1.5.8,3.7-.5,3.3-2.2,9.3-10.2,15.8-21.3,1.5-2.8,5-8.5,7.3-12.7l4.3-7.3-.3-2.2c-1.5-7.2-7.3-11-12.5-8.7-5.5,2.5-13.7,16.7-17.8,30.8-3,10.2-3.2,19-.5,21.8Z"/>
            <path class="cls-2" d="M423.5,123.3c-3.7-15.3-3.3-33.2,1-49,4.2-15.8,12.8-30,23-37.7,13.5-10.2,26.3-8.3,29.7,4,1.5,6,0,13.3-4.7,23-1.3,2.5-2.3,4.7-2.3,4.8.2,0,1.2-.5,2.5-1,4.8-2.2,12.3-4,16.7-3.8,6.8,0,13.7,3.2,17.7,8.3,3,3.8,4.8,8,5.7,13.5.3,1.7.7,3.2.8,3.3,0,0,.8,0,1.7-.3,3.3-.8,11.5-2,12.7-1.7,3.8,1.2,5.5,5.5,3.5,8.7-1.3,1.8-2.8,2.5-8,3.3-4.7.8-7,1.2-9.7,2-1.3.3-1.5.5-1.8,2.3-3.2,13.3-13.5,28.8-25.8,39.4-8.8,7.3-21,13.5-31,15.7-3.3.7-10.5,1-13.2.5-8.5-1.5-13.8-6.3-15.2-13.3-.5-2.5,0-6,1-8.3.3-1.2.3-1.5,0-2.2-1.2-1.8-3-6.8-4.2-11.5ZM435.5,123.1l.3,1.3,3.3-2.7c1.7-1.7,4.8-4.2,6.8-5.7,6.7-5,18.3-11.5,27.3-15,3.7-1.5,19.3-6.7,25.3-8.5l2.8-.8v-2.2c0-4-1.8-8.7-4.2-11.2-3.5-3.3-7.8-4-14.8-2.2-4.5,1.3-9.3,3.5-15,7.2-4.2,2.7-14,10.5-15.8,12.5-2.2,2.2-5,2.7-7.7,1.2-2.2-1-3.2-2.7-3.2-5s.2-2.5,4-7.5c10-12.8,17.2-24.7,19.8-32.5,1.3-3.8,1.7-8,.8-9.7-.5-.8-.7-.8-2.3-.7-7.2.8-17.2,10.7-22.7,22.3-5,10.3-7.2,20-7.5,33.3-.3,10.3.5,18.3,2.5,25.7ZM499.2,104.8c-.3-.2-18.3,5.8-22.5,7.5-13.2,5.5-24.2,12.3-31.8,20.2-6,6-7.8,10.2-5.8,12.5,1.5,1.8,3.3,2.3,9,2.2,4.5-.2,5.3-.3,9.2-1.7,10.5-3.5,19-9,27-17.3,4.3-4.5,6.8-7.8,10-13,2.2-3.7,5.2-10,5-10.3Z"/>
            <path class="cls-2" d="M640.4,90.2c-6.3,19.8-8.8,30.8-7.3,35.8l.3,1.3,1.7-1.7c3.8-3.5,11.2-14.2,19.8-29.2,5-8.2,5.8-9.2,8.7-9.3,2.5-.3,4.3.7,5.3,3,1.3,2.7,1,3.8-3.5,11.5-13,22.2-21.5,33.7-27.3,36.4-4.3,2.3-9.3,1.3-12.7-2.3-5.5-6-5.7-15.2-.8-33.5,1-3.5,1.7-6.2,1.5-6s-2,3.2-4,6.7c-14.5,24.2-22,33.8-29.3,37.2-2.5,1.3-5.8,1.8-8,1.2-4-1.2-7.2-3.8-9.2-8.2-4-8.5-3.3-18.2,3-39.5,3.5-11.5,9-26.3,11.3-30,2.3-3.7,7.8-3.7,10,.2,1,2,.7,3.8-1.7,9-4.3,10.5-9.7,26.8-11.8,36.7-1.3,5.7-1.8,11-1.7,14,.3,2.7,1.8,6.3,2.7,6.3s3.3-2,5.3-4.2c4.7-5.3,9.8-12.8,22.2-33.5,5-8,10.3-17,12.2-19.7,3.7-5.5,7.8-10.2,10.3-11.7,3.3-1.8,7.2-1,9,2.2,1.7,3.2,1,5.8-6,27.3Z"/>
            <path class="cls-2" d="M716.5,119.3c0-10.5,3.3-22.2,9.7-35.2,3.8-7.5,6.3-11.3,10-15.2,4.8-5,9.3-7.3,15.2-7.3s13.5,3.8,16.8,9c.5.8,1,1.5,1.2,1.3,0,0,1.2-1.3,2.5-3.2,4.5-6,8.5-9,11.8-9s6.2,3.2,6.5,6.8c.3,3-.2,4.7-6.2,22.8-6,18.7-7.8,24.7-9,30-2,9.7-1.3,11.8,2.3,9.3,2.5-1.8,9.3-12,20.3-30.3,5.8-9.7,6.2-10.2,7.8-11,3.8-1.8,8,.8,8,5s-.5,3.3-6.8,13.7c-8.8,14.5-14.7,23.7-18.2,27.7-3.7,4.3-6.2,6.2-10.3,7.2-2.5.7-3.8.7-6,.2-3.7-.8-6.8-3.3-8.5-7-2.7-5.5-1.3-15.3,5-34.7,1.3-4.3,2.3-8,2.3-8-.2-.2-2.7,4-5.7,9.2-11.3,19.3-14.2,23.8-18.8,29.3-4.2,5-9.7,8.7-14,9.2-4.5.5-9.7-2.2-12.7-6.7-2.7-3.8-3.3-7-3.3-13.2ZM730,126.6c.8,1,1.5.8,3.7-.5,3.3-2.2,9.3-10.2,15.8-21.3,1.5-2.8,5-8.5,7.3-12.7l4.3-7.3-.3-2.2c-1.5-7.2-7.3-11-12.5-8.7-5.5,2.5-13.7,16.7-17.8,30.8-3,10.2-3.2,19-.5,21.8Z"/>
            <path class="cls-2" d="M538.7,38.6l.5.3.7-.2.3-.5,1.1.3.7.7.8-.5,1.5.2.3.5,1-.5,1.8.5.7-.2.5.8h1.8l.3.3,2.3.5.2.5.8-.2,2.3,1.1-.2.7,2.1.8.7,1.1,1.1.2-.3.5-1.1.5.3.5.7-.5,1.1-.2.8.8.8.2.5,1v.7l-1.3.5-.5.5.5.3,1.3-.3.8.7-.3.5-1.1.7-.7-.8h-.5l-1,.8,2.8.3.7-.3,1.1.8-.3.7-.7.3.7.3h1.5l-1.1,1.1.3.5,1.6.5-.5.8-1.1-.7-.5.3v.8l1.3-.3.8.7-1.5,1.1,1.1-.2.8.7-.3.7.5.5,1.3.5-.8,1,.2.7-.8,1,1.6.8-.2.7-.8.7,1.6.5-1,.7-.7-.5-.7.5.2.3,1.1-.2.5.7-.3.8.5.7-.5,1.1-.2,1.6.8.8v.8l-1,.2v2l.3.5.7-.2-1.3,1,.2,1.5-.7.5.3.7-.7.8,1.1.7-.2.7-1.1.3-.2.5.3.5-1,1.1.7-.3.5.3v.7l-1.3.2-.3.8.5.5-.5.5h-.7l-.3.3v.7l.3.3.5-.2v.7h-1.8l-.5,1.6-.7.2-.2,1.1-1.1.5v.8l-.5.7h-.8v1l-.3.5-.5-.2-.8,1.5-.7.2v.5h-.5l-.5.8-1.5,1,.2.8-.8-.3-.7.8.5,2-.3,1.6,1.3,1.5v.8l.7,1.3-.7.8,1,.3-.7.7,1,.8v.7l.8,1v.8l-.8.5.5.7.7.2v.5l-.7.2.2.5.7-.5.3.3-.5,1.1,1,1,.2.8-1,.5,1.6,1-.2.8.3.5-.7.8.3.3,1-.2v1.1l.8,1.5-.3.7.3.8-.7.2-.3.5,1,.5.3.5-.7,1h1l.5.5-.5,1.3.5.7-.8.2-.8,1,.2.3,1.8-.8.5.8-.8,1,.3.3.7-.3.3.7-.5,1.1,1,.8h-.8l-.5,1.1,1-.3.5.5-.3,1.3,1,.3-.3,1.5.3.5-.2.5,1.1,1.3-.3.7.8.8v.5l-.8.8,1.1.8-1.3.3.2.5,1.1-.3.3.5-.7,1.6.5.3.8-.2.2.7-.7,1,1,.5-.3.8.2,1-.3.8,1.5.3v.8l.7,1.1v.7l.5.5-1.3.2.7.3.8-.2.2.5-.5.5-1.3.3-.7-.3-.7.2-1.1-.3-.8.2h-3.8l.2-.5-1,.7-1.1.2-.3-1.1,1.3-.5.3-.5-.5-.3-1.3.7-.7-.3v-.8l1.1-.7-.2-.5-.5-.2-.7.5-.7-.2v-.7l1-.7-.5-.8h-1l.2-1.1-.5-.7,1.3-.7-.5-.7-.8.5-.7-.5.2-.5.8-.7-1.3-.5-.3-.7.7-.7-.3-.7-.7-.3.3-.5-.8-.7.2-.8,1.1-.8-1.5-.3-.3-.5.2-.7-.3-.7.3-.5-.8-1,.3-1-.7-1v-.5l.7-.2-.7-1.1v-.7l-1-.3v-1.1l.7-.7-1.1-.2.2-1-1.1-2,.3-2-.8-.2.3-1.5-1.1-1.6v-.8l-.5-1.1v-1.1l-.3-.7-1-3.8.2-1.1-.8-.7v-.7l-.3-.3-.2-1.1-.7-.3v-1l-.5-.7v-2.8l-.8-.5v-1.1l-.3-.3-1.8,1-.5-.5-.7.5-2,.5v-.7l-2.3,1-1.3,1.5-.7-.5h-.7l1.1.7.3.5.3,2.3-.3.5.3,4.4-.7.7.7.5.2,1.1-.7,1.5.8,1.5-.5.5-1-.3-.5.3,1.5,1-.3.8,1,1-.8,2.3.7,1.1-.3.7.2.8-.7.8.8.5.2.7-.7.3.5,1-2.1,1,.3.3,1.1-.3.7.3.2.7-.3.7-.8.3.8.7-.8.7,1,.2.3,1-.2.7-1.8-.5.8,1h.8l-.5.7.8,1v.7l-.8.7.5.8-.8.2-.3.5.3.3h.7l.7,1-.8.8.8.5v.5h-1.5l.5.5.7-.2.2,1.6-.8.2.8,1-.7-.2-.5.3.2.7h.8l.2,2.3-.3.3-.2-.8-1.5-1-.5.3,1.3,1.1.3.8h.7l.2,3.1-.3-.8-.8-.3-.8-.8-.5.5,1.1.7-.5,1.1-.8.2-.7-.8-1.1.8-1.6-.8-.7.7h-1.1l-.5.8-.8-.2-.3-.7-.7.2-.3-.8-.8-.2.8-.7-.3-.5h-.7l.3-.7.7-.3.7.5,1.5-2-1.5-1.3,1-.7h.8l-.3-.8-1,.3-.8-.2-.3-.7,1.5-.2.5.3.5-.5h-.8l-.8-1.1.3-.5h2l.5-.3h-.8l-.5-.7v-.7l-.8-.3-.8-1,.7-.8-1,.3.2.7-.3.5-1.3.2-.2-.7.3-.7,1-.2v-1.5l1.5.3.7-.2-1.5-1.3-1,1-.5-.2-.5-1.1,1.3-.2.5.3.5-.7-1-.3-.2-.7,1.5-.7-.3-.7-1.1.7-1-.5-.2-.7,1.3-.7-.3-.7.7-1,1,.2-.8-1.1-1.3,1.1-.3-.2-.2-1.1.3-.5.7.2.3-.5v-1.1l-1-.8-.2-.5.3-.5,1.6.3-1.5-1.3.3-.5-.8-.7v-.7l1-.5.3-.5-.3-.7.3-.5,1.3-.5-.5-.7.5-.7-.8.3.2.5-1.1.5-1-.5.3-.7.7.2.5-.5-1.1-1,1.3-.7,1.1-.2-.3-.5-1.8.5-.5-.3.2-1.1h.8v-1.6l-.8-.8,1.1-1.1-1-.5.8-1-1-.7-.2-.5.3-.3h.8v-.7l-.8-.8,1.1-.8.5.2.3-.3-.3-.3-.7.5h-1l-.2-1,1.1-.5-1-1,1.6-1.3-.8.3-1-.2-.2-1,1.1-.7-.7-.8.5-.5-.8-.5-.2-.7.3-.8h.7l.2-.3-.5-.8-.3.3v-.3l.7-.3-.8-.5-.2-.8.8-.7v-.7l-.7-1v-1.6l.7-.3-.5-.7-.3-1.8.2-.7.8-.2-.7-.5.2-.7-.3-.5v-1.1l.8-.3-.8-.7.7-.7-.7-.3-.2-.8.3-.7.8-.3-.8-.3v-1.3l-.2-7.5.3-.5-.2-1.1.7-.5-.7-.5-.2-.8.5-1.8-.3-.7v-2.3l.3-.5-.3-.8v-6.6l-.5-2,.3-2.6-.3-.7.2-2.5-.3-2.6.2-1.5-.3-.7.3-2-.3-1.3.5-1.3-.5-2,.2-1.5-.5-1.5.3-.3h3.3l1-.3,1.1.3,1-.5,1.8.2.7-.3,1.5.2,1.1-.3,1.5.2,1.1-.5-.3.3ZM526.8,149.4l-.3.3-1-.7.3-.5,1.1.2-.2.7ZM526.6,153h-.5l-.5-.5.3-.3,1.1.2-.5.7ZM526.6,147.8v-.8l.5-.3,1.3.3-.5.8-1.1.7-.2-.7ZM527.4,154l.5-.2.3.3-1.5.8v-1.1l.7.2ZM527.4,105.6l.7-.2-.7-.3-.5.2.5.3ZM527.6,118.9h-.7v.5l.7-.5ZM527.4,129.9l.7-.2-.3-.7-.5-.2-.3.7.5.3ZM527.7,92l.2-.5-.7.3.5.2ZM528.1,115.8l-.3-.5-.3.3.7.2ZM527.4,120.9v.5l1.3-.8-.8.3h-.5ZM527.4,132.2v.5h.5l-.5-.5ZM527.6,156.1v.7l.5.3,1.8-.5,1.3.3.3-.3-.8-.2-.5-.7-1.8.7-.8-.3ZM528.9,144.8l.2-.7-.7-.2-.5.5,1,.3ZM528.6,134.5l.3-.5h-.7l-.2.5h.5ZM528.9,138.1l.2-.5-.7-.2-.3.5.8.2ZM528.6,136.6l-.3-.2.3.5v-.3ZM528.6,141.2l.5-.2-.3-.5-.5.3.3.3ZM528.7,133.2v-.3l-.3.3h.3ZM529.9,150.2l.2-.7-.5-.2-.5.5.8.3ZM529.4,153.5l.7-.2.3-.5-.8-.3-.3.7.2.3ZM529.9,116l.5-.3-.5-.2-.5.3.5.2ZM529.7,143.5l1.3.2.3-.3-1.6-.8-.3.5.3.5ZM530,112.5v-.7l-.5.5.5.2ZM529.7,126.1l.5-.3h-.7l.2.3ZM530.2,139.4l.3-.7-.5-.5-.5,1.1h.7ZM530.2,109.1l.2-.3-.3-.3-.3.5.5.2ZM530,136.1l.3-.2-.3-.8-.3.7.3.3ZM529.9,151.9l.3-.3h-.5l.2.3ZM530,122.7v-.3l-.2.3h.2ZM530.2,129.6v-.5h-.3l.3.5ZM530.5,145l1.1-.7-.7-.3-1.1.8.7.2ZM531,155l1,.8-.3.5,1.1.5,1.1-.2v-.5l-.8.2-1.6-2.3-1,.3-.2.7h.7ZM530.7,150.9v.5l.7.2.3-.5-.5-1-.7.2.2.7ZM531.2,141.4l.5-.3-.5-.3-.5.3.5.3ZM531,137.9l.7-.2-.5-.3-.3.5h.2ZM532.5,153.3h.7l-.2-.7-.5-.3-.5.2-.2.7.7.2ZM532.7,149.6l-.7-.2.3.5.8-.2-.5-.2ZM532.8,115.5l-.2-.3-.2.5.3-.2ZM533.8,141.4l.5-.3-.5-.3-.8.3.8.3ZM533.3,124.2v-.2l-.2.2h.2ZM533.2,127.6l.8.2v-.5l-.8.2v.2ZM533.3,137.9l.7-.2-.8-.2.2.3ZM534,154.8l.3-.5-1-.2-.2.5.8.2ZM534,144.8l.2-.5-.5-.2-.3.5.7.2ZM533.8,151.5l.5-.2-.2-.5-.5-.2-.3.5.5.3ZM534,148.4l.3-.5-.8-.2.5.7ZM533.6,120.4v.5l.5-.2-.5-.3ZM534,149.7h-.3l.3.3v-.3ZM535,129.6l.7-.5h-.8l-.5.3.7.2ZM535.1,146.5l.5-.5-.5-.3-.5.2-.3.7h.8ZM535.3,115.6l-.3-.3-.5.2.8.2ZM535.1,136.1l.2-.5h-.7l-.2.5h.7ZM534.8,143l.7.2.2-.7-.5-.5-.7.3.3.7ZM534.8,112.4h.7l.3-.5-.7-.2-.5.5.2.2ZM535.5,149.7l-.5-.5-.3.5h.8ZM535,71.9h.7v-.3l-.7.2v.2ZM535.3,145.1l.2-.5-.5.2.3.3ZM535.5,155.1l-.5-.3.2.5.3-.2ZM545,48.4l-1.8.2-.7-.5-1.6.3-1.3-.3-2.1.3-.5-.3-1.1.5.3,2.5v3.4h-1l.8.8.3,1.3-.2,4.9-.7.2.5.7.3,2.6-.3.5.5,3.4-.5,1.1.3.5-.3,3,.5,1.6-.2,3.8-.5,1.3.3.5.2,1.3-.3.7.2,2.1-1,.3.8.5v2l.3,1.1-.3.7.3,5.2-.5,1.1.7,2,1.1.3.7-.7,1.1-.5.5-1,.5.7.3-.3.7.3.7-.2,1.5-1.1.5-.8.7.5,1-.8v-.8h-.7l2.3-.3.2-.8,2.6-2.1.3-.7.7.2.5-.5.2-1.3h1l.3-.5-.2-.8.3-.5,1.1.3.3-.5-.5-1.1h.5l.5-.5,2.1-3.8.3.2.5-2.6-.3-.5.5-1.3,1-.5-.2-1.6-.5-.8.8-1.3-.7-2.5.5-.8-.7-1.1,1.5-.5.3-.5-.5-.2-1,.5-.3-.7.7-1.1-.8-.7.7-.5,1-.2-.2-.5h-.7l-.2.5-.8-.2-.3-.7,1.3-1.5-.5-.8.2-.5h-.8l.3.5-.5.8-.7-1,.8-.7-1.3-.3-.3-.5.2-.8-.7-.7-.7-1.6,1.1-.5.3-.5-.2-.5-.7-.2-1,.8h-.7l-.3-1.3,1.1-.3-.8-.8-1.1.8-.5-.5.2-1.5-1.5.3-.7-.7-1.6-.5-.5-.8-1.3.2-.3-.8-.8.3-.7-.2-.5-.8ZM535.6,68.8l.2-.3-.3-.3-.2.3.3.3ZM537.9,97l-.3.3v-.7l.3.3ZM540.5,104.8l-.3-.3v.7l.3-.3ZM543.2,47.1l.2.5.5-.3-.2-.8h-.7l.2.7ZM543.3,104.7h-.3v.3l.3-.3ZM549.5,117.4v-.2l-.2.2h.2ZM551.3,50.1l.7-.3v-.5h-.7l-.5.5.5.3ZM552,45.5l-.5.3.2.7.7-.5-.3-.5ZM553,48l.8-.5h-1l.2.5ZM554,51.4l-.3-.2.2.3.2-.2ZM554.5,49.8l1-.8-1.3.2-.3.5.7.2ZM554.5,43.2l.2-.3-.3.2.2.2ZM555.4,45.2l.7-1.1h-.5l-.7,1,.5.2ZM555.9,129.2l-.5-.5-.2.5h.7ZM555.8,48l.3.3.3-.2-.3-1-.5.2.2.7ZM556.4,51.6l.2-.2-.5-.5-.5.5.8.2ZM555.6,122.5l.5-.5h-.5v.5ZM556.6,50.1l1.8-.3-1-.8-.7.2-.3.5.2.5ZM557.1,57.3v-.3l-.7.2.7.2ZM556.9,134.5v-.5l-.5.2.5.3ZM557.4,127.3h-.5l-.2.3.7-.3ZM557.1,130.7v-.5l-.3.5h.3ZM557.6,53.2l.3-.3h-.5l-.5.5.7-.2ZM557.7,55.2l1.3-.3.2-.7-.7-.2-1.3,1,.5.2ZM558.1,51.7l.7-.5-.5-.3-.8.7.7.2ZM558.1,48l1.1-.2-.5-.5-.8.2-.3.5h.5ZM558.6,136l-.2-.5h-.5l-.2.5h.8ZM558.2,139.4l1.8-.7-2.3.5.5.2ZM558.6,58h-.5l.2.5.3-.5ZM558.6,146.1v-.3l-.2.3h.2ZM558.9,78.8l.2-.5h-.5l.3.5ZM559.5,140.6h-.5l-.2.7.7-.7ZM559.2,53.4l2.6.2.3-.3h-.8l-1.1-.8-.8.2-.3.7.2.2ZM559.4,151l-.3-.2v.3l.3-.2ZM559.4,50.1l1.1-.7-.5-.5-.7.2-.2.8.2.2ZM560,60.1l.3-.5-.3-.2-.8.7h.8ZM559.9,74l.5-.5-.7-.3-.5.5.7.3ZM559.7,124.3l.2-.5h-.3l-.3.5h.5ZM559.4,134.3l.5-.2-.7-.2.2.3ZM560,56.5l-.7-.2v.5l.7-.3ZM559.5,127.8l.5-.5-.5-.2-.2.5.2.2ZM559.4,147.9l.5-.3h-.5v.3ZM560,70.4l.3-.7-.5-.2-.3.7.5.2ZM560,77v-.3l-.3.2.3.2ZM560.4,72l-.5-.5.2.5h.3ZM560,48.1l1.3-.5v-.3h-.5l-.3.5-.5.3ZM560.9,136.1l.3-.3-.8-.3-.3.7h.8ZM560.7,146.3l.2-.7-.7.3-.2.7.7-.3ZM560.7,149.6h.5l.2-.3-1.1.5.5-.2ZM561.2,132.4l-.5-.2-.3.3.7.2.2-.3ZM560.5,58l.2.7,1.1-.3-.3-.7-.7-.2-.3.5ZM561.2,65.3l.2-.5h-.7l-.2.5h.7ZM561.3,54.7l-.5-.5-.2.5h.7ZM561.3,71.9l.2-.3-.5-.2-.3.3.7.2ZM561.7,61.4l-.3-.2-.3.3.7-.2ZM562.3,151l-.5-.3-.2.5.7-.2ZM562.7,56.8l.3-.7h-.7l-.3.7h.7ZM563,53l-.5-.3-.3.3h.8ZM562.8,58.8v-.5l-.7.2.7.3ZM562.8,60.1l.2-.5-.5-.2-.3.3.7.3ZM562.5,143.3l.8-.8-1.1.5.3.3ZM562.8,63.5l.2-.5-.7.3.5.2ZM562.8,55.2l1-.8.3.3.5-.2-1.1-.3-1,.7.3.3ZM563.1,146.6l.5-.2-.7-.8-.3.8.5.2ZM563.5,156.3l1.6-.3-2.3.3h.7ZM563.5,58.1l.3.3.5-.5-.8-.5-.2.2.2.5ZM564.6,151.7l.7-.2-.3-.7h-.7l-.3.7.7.2ZM564.6,147.6l-.5.2.2.7.3-.8ZM564.8,144.8l.7-.5h-1.1l.5.5ZM565.1,59.9l.2-.3-.5-.2-.3.5h.7ZM566.1,155.8l-.7-.2-.2.5.8-.3ZM566.6,152.8l-.5-.5-.7.3.7.5.5-.3ZM566.6,149.6l-.5-.3-.3.3.2.5.7-.5ZM566.1,155.1l.3-.3h-.5l.2.3ZM567.2,154.8l-.2-.5-.3.3.5.2ZM567.6,57.5h-.5v-.3h.5v.3ZM568.4,79.6l-.2-.7.5.2-.3.5ZM568.6,156v-.3l-.3.3h.3Z"/>
          </g>
        </g>
        <path class="cls-1" d="M897.7,25.7c-3.7,13.8-5.4,27.9-5.3,42.1-11.8,3.5-23.3,7.9-34.4,13.3-2,1-2.1,3.8,0,4.8,9.7,4.4,19.9,7.5,30.4,9.2.3,1.1,1.3,1.9,2.7,1.6,2.4-.5,4.9-.3,7.1.8,1.6,5.2,3.9,10.1,6.8,14.8,0,.5.2,1,.3,1.4,2.1,8.3,6.2,15.8,12,22.2,1.6,1.7,4.1,1,4.6-1.2.3-1.3.6-2.6.9-4,.9-.6,1.5-1.7.9-3,0-.1,0-.2-.1-.4,2.4-10.7,4.8-21.4,7.2-32,14.3-3.7,27.6-10.2,39.2-19.4,1.9-1.5.8-4.1-1.2-4.6-7-1.9-14-3.4-21.2-4.6-3.6-.6-7.1-1.1-10.7-1.5-3.4-.4-7.2-.2-10.5-.9-3-.7-4.7-6-6.1-8.5-1.9-3.3-3.8-6.7-5.7-10l-11.8-20.6c-1.3-2.3-4.3-1.9-4.9.7ZM915.2,112.3c.8,1.1,1.6,2.2,2.4,3.4-.2.7-.3,1.4-.4,2-.5-1.9-1.2-3.7-2-5.4ZM898.6,55.8c-.2,0-.4,0-.6,0,.1-1.7.2-3.5.4-5.2,0,1.8.2,3.5.2,5.3ZM959.1,77.1c-.1-.5-.3-1-.7-1.4.5,0,1-.2,1.4-.2.7-.1,1.2-.4,1.6-.8.3,0,.7.1,1,.2-1.1.8-2.2,1.5-3.3,2.2Z"/>
        <path class="cls-1" d="M210.6,234.7c-7.9,6.9-14.6,14.9-20.3,23.7-8.7-2.7-17.5-4.6-26.5-5.8-1.6-.2-2.8,1.5-1.9,2.9,4.2,6.6,9.2,12.7,14.9,18-.2.8,0,1.7,1,2.1,1.7.7,3.1,1.8,4,3.4-1.1,3.9-1.7,7.8-1.8,11.8-.1.3-.3.7-.4,1-2.1,5.9-2.6,12.2-1.6,18.4.3,1.7,2.1,2.3,3.3,1.1.7-.7,1.4-1.4,2.1-2.1.8,0,1.6-.4,1.8-1.5,0,0,0-.2,0-.3,5.8-5.6,11.6-11.2,17.4-16.7,10.3,3.5,21,4.9,31.9,4,1.8-.1,2.1-2.2,1.1-3.3-3.5-4-7.2-7.8-11.1-11.4-1.9-1.8-3.9-3.6-6-5.3-1.9-1.6-4.3-3-6-4.8-1.5-1.6-.5-5.6-.3-7.7.2-2.8.4-5.6.6-8.5l1.1-17.4c.1-2-1.9-2.9-3.3-1.6ZM186.2,295c0,1,0,2,0,3-.4.4-.7.7-1.1,1.1.4-1.4.7-2.7,1-4.1ZM198.9,253.5c-.1-.1-.2-.2-.4-.3.8-1,1.5-2,2.4-3-.7,1.1-1.3,2.2-2,3.3ZM227.3,291.2c.1-.4.2-.8.1-1.1.3.2.7.3,1,.4.5.2.9.2,1.3.1.2.2.4.4.5.6-1,0-2,0-2.9,0Z"/>
        <g>
          <path class="cls-3" d="M98.6,14.2c.7,3.2,1.5,6.4,2.2,9.6.4,1.6.8,3.3,1.2,4.9.3,1.5.2,3.1.6,4.6.3,1.4.7,2.9,1,4.3,0,1.3.1,2.6.5,3.9.3,1.2.1,2.4.4,3.6.5,2.8,1,5.6,1.6,8.4.7,2.9,1.3,5.7,2,8.6.7,2.9,1.3,5.8,2,8.6.6,2.7,1,5.5,1.8,8.2,0,.3.2.6.3.9.1.6.2,1.2.4,1.8l1.1,4.6c.4,1.6,1,3.2,1.1,4.7,0,.8,0,1.6.1,2.4.1.9.4,1.9.6,2.8.4,1.7.8,3.5,1.2,5.2.1.5.3.9.5,1.4-1.5-.9-3-1.8-4.4-2.9-1.6-1.2-3.2-2.5-4.8-3.8-.7-.6-1.3-1.3-2-1.9-.7-.6-1.6-.9-2.3-1.4-.8-.6-1.6-1-2.5-1.4-.7-.4-1.3-1.1-1.9-1.6-1.6-1.4-3.4-2.2-5.3-3.1-3.5-1.6-6.8-3.6-10.2-5.3-.9-.5-1.8-1-2.8-1.5-.8-.4-1.7-.7-2.4-1.3-.9-.6-1.6-1.4-2.5-2-1-.6-2-1.1-3-1.8-2.4-1.6-5.2,1.8-3.2,3.9,1.3,1.4,2.8,2.4,4.1,3.8,1.4,1.5,3,2.8,4.4,4.3,1.4,1.4,2.9,2.6,4.3,3.9,1.4,1.4,3,2.7,4.5,4,3.1,2.6,5.8,5.6,9,8,.7.5,1.4.9,2,1.5.7.7,1.5,1.5,2.2,2.2,1.5,1.5,3,3,4.7,4.2,1.2.9,2.4,1.6,3.7,2.3-1.4,0-2.7,0-4.1.3-1.4.2-2.9.3-4.3.6-1.6.4-3.2.7-4.8,1.1-6.8,1.6-13.6,3.1-20.4,4.7-6.8,1.6-13.5,3.1-20.3,4.7-6.7,1.6-13.5,2.8-20.2,4.3-1.8.4-3.6.8-5.3,1.2-1.8.4-3.7,1-5.6,1.2-3.8.4-7.4,1.4-11,2.2-3.2.7-2.1,5.7,1.2,5,1.4-.3,2.8-.3,4.2-.3,1.8,0,3.5-.3,5.3-.3,3.3-.1,6.6,0,9.8,0,6.8,0,13.6-.1,20.4-.7,1.5-.1,3.1-.3,4.6-.4.8,0,1.5,0,2.3-.1,1,0,1.9-.3,2.8-.5,1.4-.2,2.9,0,4.4-.3,1.6-.2,3.3-.5,4.9-.7,6.7-.8,13.2-2.6,19.8-4.1,1.9-.4,3.8-.9,5.6-1.3,1.8-.4,3.8-.7,5.4-1.4.6-.3,1.2-.6,1.8-.8.8-.2,1.7-.2,2.5-.4.9-.2,1.7-.7,2.5-1,.7-.3,1.5-.4,2.2-.6.1,0,.3,0,.4-.1-1.1,1.9-2.5,3.5-3.7,5.4-1.2,1.8-2.5,3.6-3.8,5.4-1.4,1.8-2.3,3.8-3.2,5.8-.9,1.9-2,3.7-2.9,5.6-.5,1-.9,2-1.1,3.1-.2,1-.8,1.7-1.2,2.7-.3.8-.4,1.7-.6,2.6-.3,1-.9,1.8-1.3,2.8-.8,1.9-1,3.8-2.1,5.6-.6,1.1-1.3,2.2-1.7,3.4-.2.5-.2.9-.3,1.4-.2.5-.6.9-.8,1.4-1,1.8-2.3,3.9-2.3,6.1,0,1.4,1,2.7,2.5,2.7,2.7,0,3.9-1.8,5.4-3.7,1.5-1.8,3.5-3.3,5.1-5,1.7-1.8,3.4-3.5,5.1-5.3,1.7-1.8,3.3-3.7,4.9-5.6.2-.3.4-.5.6-.8.1-.1.3-.2.4-.3,1.5-1.3,3-2.5,4.4-3.9,1.5-1.6,2.6-3.2,3.8-5.1,1.7-2.8,3.3-5.7,5-8.6.6-.6,1-1.4,1.4-2.2.5,1.4,1.2,2.8,1.9,4.2.7,1.5,1.2,3.1,1.9,4.6.5,1.3,1.1,2.6,1.5,4,.5,1.6,1.2,3,1.9,4.5.6,1.3.6,2.7,1.3,4,.7,1.3.9,2.9,1.4,4.3,1.1,3.1,2.7,5.9,4.1,8.9,1.4,3,2.9,6,4.3,9,1.4,3,2.5,6.1,3.6,9.3.6,1.7,1.3,3.4,2,5,.6,1.6,1.4,3.1,1.9,4.7.3.9.4,1.8.7,2.7.3.7.7,1.5,1,2.2.7,1.6,1.3,3.5,1.8,5.2.9,3.2,5.9,2,5-1.2-.3-1-.6-1.9-.9-2.9.3-.5.5-1.2.3-1.8-.2-.8.3-1.9.3-2.8,0-.7-.1-1.4-.3-2.1-.1-.8-.1-1.6-.2-2.4-.3-3.1-1-6.2-1.7-9.2-.4-1.5-.7-3.1-1.1-4.6-.4-1.6-1-3-1.5-4.6-.9-3.1-1.1-6.4-2.4-9.3-1.2-2.7-1.6-5.9-2.2-8.8-.7-2.9-1.2-6-2.2-8.8-.5-1.3-.8-2.7-1.4-4-.3-.5-.3-.9-.4-1.5-.2-.8-.6-1.4-.9-2.2-.2-.6-.3-1.3-.5-2-.2-.7-.5-1.4-.8-2.1-.5-1.4-.8-2.8-1.3-4.2-.3-.7-.5-1.4-.7-2.2-.2-.8-.6-1.4-.9-2.1-.2-.6-.3-1.3-.5-2-.3-.8-.6-1.5-1-2.3-.8-1.5-1.4-3.2-2-4.8.2.1.5.2.7.4,0,0,.2,0,.3.1,0,0,.1,0,.1,0,0,0,0,0,0,0,.1.1.2.2.3.3,0,0,0,0,.1.1,0,0,0,0,0,.1.8,1.8,2.4,2.9,3.8,4.2,1.7,1.6,3.3,3.2,4.9,4.8,2.9,2.8,6.1,5.2,9.6,7.2,1.8,1,3.6,1.9,5.5,2.7,2,.8,4.1,1.2,6.1,2,.9.4,1.8.8,2.8,1.1,1,.4,2,.5,3.1.7,2,.4,4,1.2,6.1,1.6,2.2.5,4.6.9,6.7,1.6,0,0,0,0,0,0,.2,0,.3.2.4.2.4.2.7.4,1.1.6.9.4,1.9.8,3,.5,1.4-.3,2.2-1.7,1.9-3.1-.4-1.9-2.1-3.5-3.4-4.8-1.5-1.4-3.4-2.9-5.3-3.9-.9-.5-1.6-1.2-2.4-1.9-.9-.9-2-1.7-3-2.5-1.7-1.3-3.7-2.6-5.1-4.2-1.6-1.8-3.7-2.9-5.5-4.5-1.9-1.7-3.8-3.2-5.9-4.6-2.1-1.3-4-2.9-6.2-4-1.9-1-3.9-2.1-5.9-3,.2,0,.4,0,.6-.1,3.3-.6,6.6-1.1,10-1.9,3.5-.8,7-1.6,10.5-2.4,1.6-.4,3.3-.8,4.9-1.1,1.7-.4,3.5-.6,5.1-1.2,1.5-.5,2.8-1.3,4.3-1.8,1.7-.5,3.4-.7,5.1-1.2,1.5-.5,2.8-1.1,4.3-1.5,1.7-.5,3.4-1,5.1-1.4,1.6-.4,3.2-.6,4.8-1.3,1.4-.6,3-.8,4.4-1.4,1.5-.5,2.9-.9,4.4-1.3,1.6-.4,3-1.2,4.6-1.6,3.4-.9,7-1.8,10.2-3.3,1.5-.7,3.2-1.2,4.8-1.9,0,0,.5-.2.4-.2.4-.1.9-.2,1.3-.4.9-.4,1.3-1.1,1.7-2,.3-.8,0-1.9-.6-2.5-2.2-2.1-5.6-1.2-8.3-1.6-1.8-.2-3.6-.2-5.5-.2-1.9,0-3.8,0-5.7.2-3.7.4-7.4.4-11.1,1.3-1.6.4-3.3.4-5,.7-1.9.3-3.8.8-5.6,1.3-2.2.6-4.3,1.1-6.5,1.6-.6,0-1.2,0-1.8.1-2.3.3-4.5.7-6.8.8-2.6.2-5.2.9-7.8,1.5-2.4.5-5,1-7.3,1.8-1.1.4-2,.9-3.1,1.1-1.2.3-2.5.5-3.7.9-1.1.3-2.1.9-3.2,1.1-1.2.3-2.3.4-3.5.7-1.2.3-2.1,1-3.3,1.3-1.4.3-2.8.6-4.2,1.1-.2,0-.3.1-.5.2.8-1.2,1.6-2.5,2.2-3.7,1.1-2,2.5-4.1,3.1-6.3.1-.4.1-.9.3-1.2.1-.3.4-.6.6-.9.8-1,1.2-2.3,1.6-3.5.7-2,2-3.7,2.8-5.7.8-2,1.9-3.9,2.9-5.8,1.1-2.1,1.9-4.3,2.8-6.5.8-2.1,1.8-4.1,2.6-6.2,1-2.5,1.9-4.9,2.7-7.4.4-1.1.6-2.3,1-3.4.4-1,1.1-1.7,1.4-2.8.3-1.2-.1-2.3-1.1-2.9-1.1-.8-2.5-.9-3.7-.2-1,.6-2.2,1.5-3,2.4-.7.8-1.3,1.6-2,2.4-.4.4-.8.9-1.1,1.5-.3.5-.4,1-.8,1.5-.4.5-.9.8-1.3,1.3-.3.5-.6.9-1,1.4-.7,1.1-1.5,2-2.3,3.1-1.5,2-3,4.1-4.7,6-3.3,3.8-5.4,8.6-7.8,13-1.3,2.4-2.5,5-3.6,7.5-.4,1-.9,1.9-1.1,3,0,0-.2.9-.2.8-.3.6-.9,1.1-1.2,1.7-.6,1.1-.9,2.3-1.6,3.3-.7,1.1-1.4,2.2-2,3.3,0,0,0,0,0,0-.2-1.4-.6-2.7-.4-4.1.2-1.4-.4-2.6-.6-4-.2-1.5-.3-2.9-.6-4.4-1.4-6.2-3-12.3-4.2-18.5-.6-3-1.2-5.9-2.3-8.8-1.1-2.9-2.5-5.7-3.7-8.5-1.1-2.7-2.3-5.3-3.3-8.1-.5-1.4-.9-2.8-1.6-4.2-.7-1.3-1.1-2.7-1.7-4-1.5-3.2-3.2-6.4-4.8-9.5-1.6-3-3.2-6-4-9.3-.8-3.2-5.8-2.1-5,1.2ZM90.2,174c-.2.2-.2,0,0,0h0ZM113.6,145.2s0,0,0,0c0,0-.1.2,0,0ZM234.7,86.6c.3-.2.3-.1,0,0h0Z"/>
          <path class="cls-2" d="M106.2,222.9c.7-.3,1.4-.5,2.2-.8,3.1-1.2,6.2-2.4,9.2-4,3.1-1.7,6.2-3.3,9.2-5.2,2.5-1.6,5.3-2.7,7.2-5,.9-1.2-.2-3.2-1.7-3.1-2.3.1-4.5,1.1-6.7,2.2-5.2,1.3-9.7,3.4-14.6,5.7-2.1,1-4.2,2.2-6.2,3.3.1-1.6.2-3.3.3-4.9,0-1.6.4-3.3.6-4.9.2-1.5.6-3.2.3-4.7-.4-1.6-2.2-2-3.4-1-1.6,1.3-2.4,3.2-3.3,5-1,2.1-2.6,4.3-4.1,6.1-.8-1.5-1.6-3.1-2.4-4.6-1.2-2.4-2.6-4.7-3.7-7.1-1-2-2-4.5-3.7-6-1.3-1.2-3.4-.5-3.6,1.3-.3,2.9.8,5.5,1.8,8.2.9,2.5,2.3,5.1,3.7,7.4,1,1.7,2.2,3.2,3.3,4.9-1.8,0-3.6,0-5.3-.1-2-.1-4.2-.9-6.2-.6-2.1-.7-5.2-1.5-6.1,1-.4,1.1.3,2.2,1.4,2.6,1.4.5,2.4.5,3.6,1.4,1,.8,2,1.3,3.1,1.8,1.1.5,1.6,1.6,2.7,2.1.4.2.9.3,1.3.6,0,0,.2.1.2.2-2.3,1.1-4.6,2-6.9,3.1-2.6,1.2-5.1,2.5-7.5,4.1-2,1.3-3.7,3.3-5.7,4.7-.8.4-1.6.8-2.1,1.3-1.6,1.7.3,4.3,2.4,3.3.4-.2.7-.4,1.1-.6.7-.3,1.9-.7,2.3-.8,1.4-.6,2.9-.9,4.3-1.5,2.9-1.3,5.9-2.6,8.7-4.2,2.7-1.5,5.5-2.7,8.2-4.2.2-.1.5-.3.7-.4,0,2,0,3.9-.2,5.7-.1.8-.5,1.5-.6,2.4,0,.7,0,1.3,0,2-.2,1.3-.6,2.6.2,3.9.6,1,2.3,1.6,3.2.5.9-1.1,1.1-2.2,1.5-3.5.5-1.4,1.3-2.5,2.1-3.7,1.1-.9,2.2-2.4,2.8-3.8.1-.1.2-.2.3-.3.9,2.7,2.4,5.1,3.4,7.7.5,1.4,1.2,2.7,1.8,4,.4.7.6,1.5,1.1,2.1.4.6.8,1,1.1,1.6,1.3,2.6,3,5.4,5.2,7.3,1.2,1,3.1-.2,3.1-1.7,0-1.4-.7-2.4-1.3-3.7-.5-1.2-1.1-2.4-1.6-3.5-1.3-2.7-2.5-5.5-4.2-8-1.6-2.4-3.2-4.6-4.6-7.2,0,0-.1-.2-.2-.3.9.3,1.8.6,2.7.9,2.1.5,4.2.7,6.3,1,1.6.3,3,.8,4.6.5,1.6-.3,2.3-3,.6-3.7-3.5-1.7-6.7-4-10.3-5.7-.6-.3-1.2-.5-1.7-.8ZM95.9,225.6s0,0,0,.1c0,0,0,0,0-.1,0,0,0,0,0,0ZM101,210.4s0,0,0,0c0,0,0,0,0,0h0ZM75.9,218.3c0,0,.2,0,.2,0-.7.7-1.2-.4-.2,0Z"/>
        </g>
        <g>
          <path class="cls-3" d="M835.4,227.8c2.7.9,5.4,1.8,8.1,2.7,1.4.5,2.8.9,4.2,1.3,1.3.4,2.4,1.2,3.7,1.6,1.2.4,2.4.8,3.7,1.2,1,.6,2,1.1,3.1,1.4,1,.3,1.8,1,2.8,1.3,2.3.9,4.6,1.8,7,2.6,2.4.8,4.9,1.6,7.3,2.4,2.4.8,4.9,1.6,7.3,2.4,2.3.7,4.5,1.7,6.9,2.3.3,0,.6.1.9.2.5.2,1,.4,1.5.5,1.3.4,2.6.8,3.9,1.3,1.3.4,2.8.7,4,1.3.6.3,1.2.7,1.8,1,.8.3,1.6.5,2.4.8,1.5.5,2.9,1,4.4,1.4.4.1.8.2,1.2.3-1.4.7-2.7,1.4-4.1,2-1.6.7-3.3,1.2-5,1.9-.7.3-1.5.4-2.3.7-.8.3-1.4.8-2.1,1.1-.9.3-1.4.7-2.2,1.2-.6.4-1.4.4-2.1.7-1.7.5-3.2,1.5-4.7,2.6-2.7,1.9-5.7,3.4-8.5,5.2-.8.5-1.6.9-2.4,1.4-.7.4-1.3.9-2.1,1.2-.9.3-1.8.6-2.6,1-.9.5-1.7,1-2.6,1.4-2.3,1.1-1,4.7,1.5,4.2,1.6-.3,3-1,4.6-1.3,1.7-.4,3.4-.9,5.2-1.4,1.6-.4,3.2-1,4.8-1.4,1.7-.4,3.3-1,5-1.5,3.3-1.1,6.7-1.8,9.9-3.1.7-.3,1.3-.6,2-.8.9-.2,1.8-.4,2.6-.6,1.8-.4,3.5-.9,5.3-1.6,1.2-.5,2.3-1.1,3.4-1.7-.5,1.1-1.1,2.1-1.6,3.2-.5,1.2-1.1,2.3-1.5,3.5-.5,1.4-.9,2.7-1.3,4.1-1.9,5.8-3.8,11.5-5.6,17.3-1.9,5.7-3.7,11.5-5.6,17.2-1.9,5.7-4,11.3-5.9,16.9-.5,1.5-1,3-1.5,4.5-.5,1.5-.9,3.2-1.6,4.7-1.4,3-2.3,6.1-3.3,9.2-.9,2.7,3.3,4.1,4.2,1.4.4-1.2,1.1-2.2,1.6-3.3.7-1.3,1.4-2.7,2.1-4.1,1.4-2.5,2.9-4.9,4.4-7.3,3-5.1,6-10.2,8.6-15.5.6-1.2,1.2-2.4,1.7-3.6.3-.6.6-1.2.9-1.8.4-.8.6-1.5.9-2.3.5-1.2,1.2-2.2,1.8-3.4.6-1.3,1.1-2.6,1.7-3.9,2.4-5.3,4-11,5.8-16.5.5-1.6,1-3.2,1.6-4.8.5-1.5,1.2-3.1,1.4-4.7,0-.6,0-1.1.3-1.7.3-.7.6-1.3.8-2,.3-.8.3-1.5.4-2.3,0-.6.4-1.3.6-1.9,0-.1,0-.2,0-.4.9,1.7,1.5,3.4,2.3,5.1.8,1.7,1.6,3.4,2.3,5.2.7,1.8,1.8,3.4,2.9,4.9,1.1,1.5,1.8,3.1,2.8,4.7.5.8,1.1,1.6,1.8,2.2.7.6.9,1.4,1.5,2.1.5.6,1.1,1.1,1.6,1.6.6.6,1,1.5,1.5,2.2,1,1.4,2.4,2.5,3.2,4,.5,1,1,2,1.8,2.8.3.3.6.6.9.9.3.4.4.8.7,1.3.9,1.6,1.9,3.5,3.5,4.4,1,.6,2.4.4,3.1-.6,1.2-2,.4-3.7-.3-5.7-.7-2-.9-4.1-1.4-6.1-.6-2-1.1-4.1-1.6-6.1-.6-2.1-1.3-4.1-2-6.1,0-.3-.2-.5-.3-.8,0-.1,0-.3,0-.4-.3-1.7-.5-3.4-1-5-.5-1.8-1.2-3.4-2.1-5.1-1.3-2.6-2.8-5-4.1-7.5-.2-.7-.6-1.4-1-2,1.3.3,2.6.3,3.9.5,1.4.2,2.8.5,4.3.7,1.2.2,2.4.3,3.6.7,1.4.4,2.8.5,4.2.6,1.2.1,2.3.8,3.5.8,1.3,0,2.6.6,3.8.9,2.8.6,5.6.7,8.4.9,2.9.3,5.7.5,8.6.8,2.9.3,5.7.9,8.5,1.5,1.5.3,3.1.5,4.6.8,1.4.2,2.9.3,4.3.7.8.2,1.5.5,2.3.7.7.1,1.4.2,2.1.3,1.5.2,3.2.6,4.6,1,2.8.8,4.1-3.4,1.4-4.2-.8-.2-1.7-.4-2.6-.6-.3-.5-.7-.9-1.2-1-.7-.2-1.3-1.1-2-1.5-.5-.3-1.1-.5-1.6-.7-.6-.2-1.2-.6-1.8-.9-2.4-1.2-5-2-7.6-2.9-1.3-.4-2.6-.9-3.9-1.3-1.3-.4-2.7-.6-4-1-2.7-.7-5.2-2.1-8-2.4-2.6-.3-5.1-1.5-7.6-2.3-2.5-.8-5-1.8-7.5-2.3-1.2-.2-2.4-.6-3.6-.7-.5,0-.8-.2-1.3-.3-.7-.2-1.4-.2-2-.3-.6,0-1.1-.4-1.7-.6-.6-.2-1.3-.2-1.9-.4-1.3-.2-2.4-.7-3.7-.9-.7-.1-1.3-.3-1.9-.4-.7-.2-1.3-.2-2-.3-.6,0-1.1-.4-1.7-.5-.7-.2-1.4-.2-2.1-.3-1.5-.1-3-.4-4.5-.7.2-.1.4-.2.6-.4,0,0,.2,0,.2-.1,0,0,.1,0,.1,0,0,0,0,0,0,0,.1,0,.3,0,.4-.1,0,0,0,0,.1,0,0,0,0,0,.1,0,1.7.2,3.2-.5,4.8-.9,1.9-.5,3.9-1,5.8-1.5,3.3-.9,6.6-2.2,9.6-3.9,1.5-.9,3.1-1.8,4.5-2.9,1.5-1.1,2.7-2.5,4.2-3.6.7-.5,1.4-1,2.1-1.5.7-.6,1.3-1.3,1.9-2,1.2-1.4,2.7-2.5,3.9-3.8,1.4-1.4,2.7-3,4.2-4.3,0,0,0,0,0,0,.1,0,.3-.2.4-.2.3-.2.6-.4.9-.6.8-.5,1.4-1.1,1.7-2,.4-1.2-.3-2.4-1.4-2.8-1.6-.6-3.5,0-5.1.4-1.7.5-3.7,1.2-5.2,2.2-.8.5-1.6.7-2.5.9-1.1.3-2.2.7-3.2,1.1-1.8.7-3.5,1.6-5.4,2-2,.4-3.8,1.4-5.8,2-2.1.6-4.1,1.3-6,2.3-1.9.9-3.9,1.7-5.7,2.8-1.6,1-3.3,2-4.9,3,0-.2.1-.4.2-.5,1.1-2.7,2.2-5.4,3.1-8.2,1-3,1.9-5.9,2.9-8.9.4-1.4.9-2.7,1.3-4.1.5-1.4,1.1-2.9,1.4-4.3.3-1.3.3-2.7.6-4,.3-1.5,1-2.8,1.3-4.3.3-1.3.4-2.6.8-3.9.4-1.5.8-3,1.2-4.5.4-1.4,1-2.7,1.2-4.1.2-1.3.7-2.6,1-3.9.3-1.3.7-2.6,1-3.9.4-1.4.5-2.8.9-4.1.9-2.9,1.8-6,2.1-9,.2-1.5.6-2.9.7-4.4,0,0,0-.5,0-.4.1-.4.2-.7.3-1.1,0-.8-.2-1.5-.7-2.2-.5-.6-1.4-.9-2.1-.7-2.5.7-3.4,3.6-4.9,5.4-1,1.3-1.8,2.6-2.6,4-.8,1.4-1.7,2.8-2.4,4.3-1.3,2.9-3,5.7-4,8.8-.4,1.4-1.2,2.6-1.7,4-.6,1.5-1.1,3.1-1.6,4.7-.5,1.9-1.1,3.7-1.7,5.5-.2.4-.5.9-.7,1.4-.8,1.8-1.5,3.7-2.4,5.4-1,2-1.7,4.3-2.4,6.4-.7,2.1-1.5,4.1-1.9,6.3-.2,1-.2,1.9-.6,2.8-.4,1-.8,2.1-1,3.2-.2,1-.3,2-.6,2.9-.3,1-.7,1.9-1,2.9-.3,1-.2,2-.5,3-.4,1.2-.8,2.3-1,3.6,0,.1,0,.3,0,.4-.5-1.2-1.1-2.3-1.7-3.3-1-1.7-1.9-3.7-3.3-5.1-.2-.3-.6-.5-.8-.8-.2-.2-.2-.6-.4-.9-.4-1-1.2-1.9-1.8-2.7-1.2-1.4-1.9-3.1-3-4.6-1.1-1.5-2.1-3.1-3-4.8-1-1.8-2.3-3.3-3.6-5-1.2-1.5-2.2-3.1-3.4-4.7-1.4-1.8-2.8-3.6-4.3-5.3-.7-.8-1.5-1.5-2.1-2.3-.6-.7-.8-1.6-1.4-2.3-.7-.7-1.7-.9-2.7-.5-1.1.5-1.8,1.5-1.8,2.7,0,1,.1,2.3.4,3.3.2.9.6,1.7.9,2.6.1.5.3,1,.6,1.5.2.4.6.8.7,1.3.2.5.2,1.1.4,1.6.2.5.4.9.6,1.3.5,1,.8,2,1.3,3,.8,2,1.7,4.1,2.4,6.2,1.4,4.2,3.9,7.9,6.2,11.6,1.2,2.1,2.5,4.1,4,6,.6.8,1.1,1.5,1.7,2.2,0,0,.6.6.5.5.3.5.4,1.2.8,1.7.6.9,1.3,1.7,1.8,2.7.5,1,1,2,1.6,3,0,0,0,0,0,0-1.1-.5-2.3-.8-3.2-1.5-1-.8-2.1-.8-3.2-1.3-1.2-.5-2.3-1.1-3.5-1.5-5.2-1.7-10.5-3.3-15.6-5.2-2.5-.9-4.9-1.8-7.6-2.2-2.7-.4-5.3-.6-8-1.1-2.5-.4-5-.7-7.5-1.1-1.3-.3-2.5-.6-3.8-.7-1.3,0-2.5-.4-3.7-.5-3.1-.3-6.2-.5-9.2-.7-2.9-.2-5.9-.3-8.7-1.2-2.7-.8-4.1,3.3-1.4,4.2ZM950.2,305.5c0,.2,0,.2,0,0h0ZM939.3,275.3s0,0,0-.1c0,0,0,.2,0,.1ZM950.1,159.2c0-.3,0-.3,0,0h0Z"/>
          <path class="cls-2" d="M1035.2,149.6c0-.8-.1-1.5-.2-2.3-.3-3.4-.6-6.6-1.4-9.9-.8-3.4-1.5-6.8-2.5-10.2-.9-2.8-1.2-5.9-2.9-8.3-.9-1.2-3.2-.7-3.5.7-.5,2.3-.2,4.7.3,7-.2,5.4.7,10.3,1.6,15.6.4,2.3,1,4.6,1.5,6.9-1.5-.6-3.1-1.1-4.6-1.6-1.6-.5-3-1.2-4.5-1.9-1.4-.6-2.9-1.5-4.5-1.6-1.6,0-2.5,1.6-1.9,3,.8,1.9,2.4,3.2,3.9,4.6,1.7,1.6,3.4,3.7,4.8,5.6-1.7.4-3.4.7-5.1,1-2.7.5-5.2,1.2-7.9,1.7-2.2.4-4.8.7-6.8,1.9-1.5.9-1.4,3.1.3,3.8,2.8,1,5.5.7,8.4.5,2.7-.2,5.5-.9,8.1-1.5,1.9-.5,3.7-1.2,5.6-1.9-.5,1.7-1,3.4-1.5,5.1-.6,1.9-2,3.8-2.2,5.8-1.3,1.9-2.9,4.6-.7,6.1.9.6,2.2.3,2.8-.6.8-1.2,1.1-2.2,2.3-3.1,1-.7,1.7-1.6,2.6-2.5.8-.9,1.9-1.2,2.8-2,.3-.3.5-.8.9-1.1,0,0,.2-.1.3-.2.4,2.5.7,5,1.1,7.5.4,2.8,1,5.6,1.9,8.4.7,2.3,2.2,4.5,3,6.7.1.9.3,1.7.7,2.4,1.2,2,4.2.9,3.8-1.4,0-.4-.2-.8-.3-1.2,0-.8-.1-2-.2-2.5-.2-1.5,0-3.1-.3-4.6-.5-3.2-.9-6.4-1.7-9.5-.7-3-1.1-6.1-1.8-9,0-.2-.1-.5-.2-.8,1.9.6,3.8,1.1,5.5,1.8.7.3,1.4.9,2.1,1.2.6.3,1.3.4,1.9.6,1.2.5,2.4,1.3,3.8.9,1.2-.3,2.1-1.8,1.4-3-.8-1.2-1.8-1.6-2.9-2.4-1.2-.8-2.1-1.9-3-3-.6-1.3-1.7-2.8-2.9-3.8,0-.1-.2-.2-.2-.4,2.8-.1,5.6-.9,8.4-1.2,1.4-.1,2.9-.4,4.4-.7.8-.1,1.6-.2,2.3-.5.6-.2,1.2-.5,1.9-.6,2.8-.5,6-1.4,8.4-3.1,1.3-.9.6-3.1-.7-3.5-1.4-.4-2.5,0-3.9.2-1.3.2-2.6.4-3.8.6-3,.5-6,.9-8.9,1.9-2.7.9-5.3,1.8-8.1,2.5-.1,0-.2,0-.3,0,.6-.8,1.1-1.6,1.6-2.4,1.1-1.9,1.8-3.8,2.7-5.7.7-1.4,1.6-2.7,1.7-4.3.1-1.6-2.2-3-3.4-1.6-2.6,2.9-5.7,5.4-8.3,8.4-.4.5-.8,1-1.3,1.5ZM1035,160.2s0,0,.1,0c0,0,0,0-.1,0,0,0,0,0,0,0ZM1021.8,151.1s0,0,0,0c0,0,0,0,0,0h0ZM1022.6,177.4c0,0,0-.1.1-.2.5.9-.8,1-.1.2Z"/>
        </g>
        <g>
          <path class="cls-2" d="M863.2,200.2c-.6,1,1.1,1.9,2,1.7,1.9-.3,1.7-2.4,1-3.6-.6-1-2.4-2.7-3.5-3-1-.2-2.8,1.2-3,2.2-.3,1.5,1.1,2.9,2.2,3.6,1.7,1.1,2.5,1,3.9-.7,1-1.3,1.4-2,.2-3.1-1.5-1.3-2.9-.3-3.5,1.3"/>
          <path class="cls-2" d="M830.7,131.6c-.2,0-.4-.2-.6-.2-.4.2-.7.6-.8,1.1"/>
          <path class="cls-2" d="M879.8,128.4c.4.3,3.7,4.6,3.7,1.1,0-1.7-3.6-2-4.3-.5-.6,1.4,3,3.1,3.8,1.4.6-1.3-2-4.2-2.6-1.6"/>
        </g>
        <path class="cls-2" d="M394.6,48.4c4-.4,1.9-4-.6-2.6-2.7,1.5,1,2.6,2.2,2.8"/>
        <path class="cls-2" d="M744.2,26c2.4-2.1-4-6.5-4.9-3.5-.5,1.7,2,3,2.8,1.3.6-1.2-1.4-3.6-2.7-2.6-.2.6,0,1,.7,1.3"/>
        <path class="cls-2" d="M816.6,290.4c-.4,1,.1,1.9,1,2.4,1.3-1.3,2.5-5.1-.6-5.6-1.4-.2-2.8,1.6-2.1,2.9.4.7,1.8,1.3,2.5,1.6.5-.7.2-1.8,0-2.6"/>
        <path class="cls-2" d="M439.3,276.5c0-.2.2-.4.2-.6-.6-.6-3.4-2-2.2-.8,1.3-1-.9-3-1.6-1.8-.8,1.4,1.9,1.6,2.5,1.7-.5,1.1-2,1-2.1,2.5.5.2.8,0,.9-.5-.2-.5-.6-.8-1.1-.9"/>
        <path class="cls-2" d="M990.1,298.9c.3.2.4.3.3.2.1,0,.2.1.3.2"/>
        <path class="cls-2" d="M235.2,349.8c-2-1.1-.6,2.9,1.4,2.6,2.2-.3-.4-3.9-2-3.1-1,2,3,4.2,3.5,2.4-.4-.6-.9-1-1.6-1-.1.2-.3.3-.4.5"/>
        <path class="cls-2" d="M109,295.3c-.6-.5-1.2-.9-2-1.1-.4.5-.4,1-.1,1.6"/>
        <path class="cls-2" d="M222.1,31.1c3.3-.4.5-4.7-1.7-3.8-2.7,1.1-.4,4.8,1.6,5.4,2.7.9,5.2-2.6,2.5-4.6-2-1.5-5.3,1.2-2.6,1.9"/>
        <g>
          <path class="cls-2" d="M224.2,158.8c.4.9.6,2.7,1.4,3.4.7.6,3.1.4,3.6-.6.2-.5-.9-2.9-1.1-3.3-.8-1.3-1.7-1.3-3.1-.6-2.2,1.1-2.4,5.6.6,5.5,3.6-.1,1.5-5.5-.5-4.6,0,.2,0,.5.1.7"/>
          <path class="cls-2" d="M239.7,212.9c0-.9.7-1.6-.3-2.1-.7-.4-2.3.6-2.6,1.2-1.4,2.7,3.3,3.4,4.2,1.6.5-1-.7-4.2-2.5-3.5-1.3.6-1,4.6,1.1,2.9"/>
          <path class="cls-2" d="M189.7,175.4c-.8.6-1.7.5-1.9-.6,0,.1.1.3.2.4"/>
        </g>
        <path class="cls-2" d="M978.9,125.3c.4,2.5,4.3,3.2,5.1.5.2-.9-.4-2-1.2-2.5-1.2-.8-1.3-.2-2.4.3-1.1.5-1.7.3-2.3,1.6-.6,1.3-.5,2.9.8,3.8,2.3,1.5,4.3-1.1,4.9-3-.8-.9-3.9-3.5-4.5-1.2"/>
      </g>
    </g>
  </g>
</svg>