<?xml version="1.0" encoding="UTF-8"?>
<svg xmlns="http://www.w3.org/2000/svg" version="1.1" viewBox="0 0 200 200">
  <defs>
    <style>
      .cls-1 {
        fill: #1e1e1e;
      }
    </style>
  </defs>
  <!-- Generator: Adobe Illustrator 28.6.0, SVG Export Plug-In . SVG Version: 1.2.0 Build 709)  -->
  <g>
    <g id="Capa_1">
      <g>
        <path class="cls-1" d="M100,200C44.9,200,0,155.1,0,100S44.9,0,100,0s100,44.9,100,100-44.9,100-100,100ZM100,6.9C48.7,6.9,6.9,48.7,6.9,100s41.8,93.1,93.1,93.1,93.1-41.8,93.1-93.1S151.3,6.9,100,6.9Z"/>
        <path class="cls-1" d="M128.6,92.5l-1.6,12.9c-.3,2.2-2.1,3.8-4.3,3.8h-20.9v54c-2.2.2-4.4.3-6.7.3-5.1,0-10-.5-14.8-1.5v-52.8h-16.1c-1.5,0-2.7-1.2-2.7-2.7v-16.2c0-1.5,1.2-2.7,2.7-2.7h16.1v-24.2c0-14.9,12-26.9,26.8-26.9h18.8c1.5,0,2.7,1.2,2.7,2.7v16.2c0,1.5-1.2,2.7-2.7,2.7h-13.4c-5.9,0-10.7,4.8-10.7,10.8v18.9h22.5c2.6,0,4.6,2.3,4.3,4.8Z"/>
      </g>
    </g>
  </g>
</svg>