<?xml version="1.0" encoding="UTF-8"?>
<svg xmlns="http://www.w3.org/2000/svg" version="1.1" viewBox="0 0 200 200">
  <defs>
    <style>
      .cls-1 {
        fill: #1e1e1e;
      }
    </style>
  </defs>
  <!-- Generator: Adobe Illustrator 28.6.0, SVG Export Plug-In . SVG Version: 1.2.0 Build 709)  -->
  <g>
    <g id="Capa_1">
      <g>
        <path class="cls-1" d="M100,200C44.9,200,0,155.1,0,100S44.9,0,100,0s100,44.9,100,100-44.9,100-100,100ZM100,6.9C48.7,6.9,6.9,48.7,6.9,100s41.8,93.1,93.1,93.1,93.1-41.8,93.1-93.1S151.3,6.9,100,6.9Z"/>
        <path class="cls-1" d="M141.6,59.1H58.4c-8.2,0-14.9,6.7-14.9,14.9v52c0,8.2,6.7,14.9,14.9,14.9h83.2c8.2,0,14.9-6.7,14.9-14.9v-52c0-8.2-6.7-14.9-14.9-14.9ZM113.4,103.6l-23.1,11.6c-2.7,1.3-5.8-.6-5.8-3.6v-23.1c0-3,3.1-4.9,5.8-3.6l23.1,11.6c3,1.5,3,5.7,0,7.2Z"/>
      </g>
    </g>
  </g>
</svg>