<?xml version="1.0" encoding="UTF-8"?>
<svg xmlns="http://www.w3.org/2000/svg" version="1.1" viewBox="0 0 200 200">
  <defs>
    <style>
      .cls-1 {
        fill: #1e1e1e;
      }
    </style>
  </defs>
  <!-- Generator: Adobe Illustrator 28.6.0, SVG Export Plug-In . SVG Version: 1.2.0 Build 709)  -->
  <g>
    <g id="Capa_1">
      <g>
        <path class="cls-1" d="M100,200C44.9,200,0,155.1,0,100S44.9,0,100,0s100,44.9,100,100-44.9,100-100,100ZM100,6.9C48.7,6.9,6.9,48.7,6.9,100s41.8,93.1,93.1,93.1,93.1-41.8,93.1-93.1S151.3,6.9,100,6.9Z"/>
        <path class="cls-1" d="M119.1,124.9v-47.8s5.4,9,24.9,9.5c1,0,1.9-.8,1.9-1.9v-13.5c0-1-.8-1.8-1.8-1.9-15.1-.9-22.3-12.5-23-23.1,0-1-.9-1.7-1.9-1.7h-15.4c-1,0-1.9.8-1.9,1.9v76c0,8.3-6.3,15.4-14.6,15.8-9.4.4-17.1-7.6-15.9-17.2.8-6.8,6.2-12.3,13-13.2,1.3-.2,2.7-.2,3.9,0,1.1.1,2.1-.7,2.1-1.8v-13.6c0-1-.7-1.8-1.7-1.9-1.9-.1-3.9,0-5.9.1-14.9,1.7-26.9,13.7-28.5,28.6-2.2,19.6,13.1,36.2,32.3,36.2s32.5-14.6,32.5-32.5"/>
      </g>
    </g>
  </g>
</svg>