<?xml version="1.0" encoding="UTF-8"?>
<svg xmlns="http://www.w3.org/2000/svg" version="1.1" viewBox="0 0 200 200">
  <defs>
    <style>
      .cls-1 {
        fill: #1e1e1e;
      }
    </style>
  </defs>
  <!-- Generator: Adobe Illustrator 28.6.0, SVG Export Plug-In . SVG Version: 1.2.0 Build 709)  -->
  <g>
    <g id="Capa_1">
      <g>
        <path class="cls-1" d="M100,200C44.9,200,0,155.1,0,100S44.9,0,100,0s100,44.9,100,100-44.9,100-100,100ZM100,6.9C48.7,6.9,6.9,48.7,6.9,100s41.8,93.1,93.1,93.1,93.1-41.8,93.1-93.1S151.3,6.9,100,6.9Z"/>
        <path class="cls-1" d="M113.9,91.1l39.1-41.8h-14.8l-30.7,32.8-23.5-32.8h-40.6l41.1,57.4-41.1,43.9h14.8l32.7-34.9,25,34.9h40.6l-42.6-59.5ZM64.4,60.1h14.1l57.1,79.8h-14.1l-57.1-79.8Z"/>
      </g>
    </g>
  </g>
</svg>