<?xml version="1.0" encoding="UTF-8"?>
<svg xmlns="http://www.w3.org/2000/svg" version="1.1" viewBox="0 0 200 200">
  <defs>
    <style>
      .cls-1 {
        fill: #1e1e1e;
      }
    </style>
  </defs>
  <!-- Generator: Adobe Illustrator 28.6.0, SVG Export Plug-In . SVG Version: 1.2.0 Build 709)  -->
  <g>
    <g id="Capa_1">
      <g>
        <path class="cls-1" d="M100,200C44.9,200,0,155.1,0,100S44.9,0,100,0s100,44.9,100,100-44.9,100-100,100ZM100,6.9C48.7,6.9,6.9,48.7,6.9,100s41.8,93.1,93.1,93.1,93.1-41.8,93.1-93.1S151.3,6.9,100,6.9Z"/>
        <path class="cls-1" d="M126.2,49.4h-52.4c-13.5,0-24.4,10.9-24.4,24.4v52.4c0,13.5,10.9,24.4,24.4,24.4h52.4c13.5,0,24.4-10.9,24.4-24.4v-52.4c0-13.5-10.9-24.4-24.4-24.4ZM141.9,124.4c0,9.6-7.8,17.5-17.5,17.5h-48.9c-9.6,0-17.5-7.8-17.5-17.5v-48.9c0-9.6,7.8-17.5,17.5-17.5h48.9c9.6,0,17.5,7.8,17.5,17.5v48.9Z"/>
        <path class="cls-1" d="M100,73.8c-14.5,0-26.2,11.7-26.2,26.2s11.7,26.2,26.2,26.2,26.2-11.7,26.2-26.2-11.7-26.2-26.2-26.2ZM100,117.5c-9.6,0-17.5-7.8-17.5-17.5s7.8-17.5,17.5-17.5,17.5,7.8,17.5,17.5-7.8,17.5-17.5,17.5Z"/>
        <circle class="cls-1" cx="128" cy="72.1" r="5.2"/>
      </g>
    </g>
  </g>
</svg>